<svg width="48" height="43" viewBox="0 0 48 43" fill="none" xmlns="http://www.w3.org/2000/svg">
<g clip-path="url(#clip0_26_4664)">
<path d="M31.0619 12.9984C31.7115 12.4047 32.0697 11.6147 32.0697 10.7741C32.0697 9.03958 30.5261 7.62891 28.6281 7.62891C27.7084 7.62891 26.8447 7.95626 26.1944 8.54994L24.4808 10.116L22.7672 8.54994C22.1176 7.95626 21.2532 7.62891 20.3334 7.62891C18.4354 7.62891 16.8918 9.03958 16.8918 10.7741C16.8918 11.6147 17.25 12.4047 17.8997 12.9984L24.4808 19.0128L31.0619 12.9984ZM18.4096 10.7741C18.4096 9.80526 19.2733 9.016 20.3334 9.016C20.848 9.016 21.3306 9.1991 21.6941 9.53062L24.4808 12.0773L27.2674 9.53062C27.6302 9.1991 28.1136 9.016 28.6281 9.016C29.6883 9.016 30.5519 9.80526 30.5519 10.7741C30.5519 11.2444 30.3516 11.6855 29.9888 12.0177L24.4808 17.0515L18.9727 12.0177C18.61 11.6862 18.4096 11.2444 18.4096 10.7741Z" fill="#AA8453"/>
<path d="M45.73 24.2744H3.232C1.97679 24.2744 0.955322 25.2079 0.955322 26.3551V36.7583C0.955322 37.9054 1.97679 38.8389 3.232 38.8389H6.26758V40.9196C6.26758 42.0667 7.28905 43.0002 8.54426 43.0002H9.30315C10.5584 43.0002 11.5798 42.0667 11.5798 40.9196V38.8389H37.3822V40.9196C37.3822 42.0667 38.4037 43.0002 39.6589 43.0002H40.4178C41.673 43.0002 42.6945 42.0667 42.6945 40.9196V38.8389H45.73C46.9852 38.8389 48.0067 37.9054 48.0067 36.7583V26.3551C48.0067 25.2079 46.9852 24.2744 45.73 24.2744ZM10.062 40.9196C10.062 41.3024 9.72206 41.6131 9.30315 41.6131H8.54426C8.12535 41.6131 7.78536 41.3024 7.78536 40.9196V38.8389H10.062V40.9196ZM41.1767 40.9196C41.1767 41.3024 40.8367 41.6131 40.4178 41.6131H39.6589C39.24 41.6131 38.9 41.3024 38.9 40.9196V38.8389H41.1767V40.9196ZM46.4889 36.7583C46.4889 37.1411 46.1489 37.4518 45.73 37.4518H42.6945H37.3822H11.5798H6.26758H3.232C2.81309 37.4518 2.47311 37.1411 2.47311 36.7583V26.3551C2.47311 25.9722 2.81309 25.6615 3.232 25.6615H45.73C46.1489 25.6615 46.4889 25.9722 46.4889 26.3551V36.7583Z" fill="#AA8453"/>
<path d="M5.50875 13.871C5.50875 12.7238 6.53022 11.7903 7.78543 11.7903H14.296L14.4743 11.3284C15.9747 7.45634 19.996 4.85484 24.4811 4.85484C28.9662 4.85484 32.9875 7.45634 34.4871 11.3284L34.6662 11.7903H41.1767C42.432 11.7903 43.4534 12.7238 43.4534 13.871V22.8871H44.9712V13.871C44.9712 12.1967 43.6652 10.7958 41.9356 10.4733V4.03368C42.8167 3.74655 43.4534 2.98365 43.4534 2.08065C43.4534 0.933516 42.432 0 41.1767 0C39.9215 0 38.9001 0.933516 38.9001 2.08065C38.9001 2.98365 39.536 3.74655 40.4179 4.03368V10.4032H35.7264C33.8792 6.235 29.4276 3.46774 24.4811 3.46774C19.5346 3.46774 15.083 6.235 13.2358 10.4032H7.78543V4.03368C8.66651 3.74655 9.30322 2.98365 9.30322 2.08065C9.30322 0.933516 8.28175 0 7.02654 0C5.77133 0 4.74986 0.933516 4.74986 2.08065C4.74986 2.98365 5.38581 3.74655 6.26765 4.03368V10.6973C4.92972 11.2341 3.99097 12.4527 3.99097 13.871V22.8871H5.50875V13.871ZM41.1767 1.3871C41.5957 1.3871 41.9356 1.69781 41.9356 2.08065C41.9356 2.46348 41.5957 2.77419 41.1767 2.77419C40.7578 2.77419 40.4179 2.46348 40.4179 2.08065C40.4179 1.69781 40.7578 1.3871 41.1767 1.3871ZM7.02654 1.3871C7.44545 1.3871 7.78543 1.69781 7.78543 2.08065C7.78543 2.46348 7.44545 2.77419 7.02654 2.77419C6.60763 2.77419 6.26765 2.46348 6.26765 2.08065C6.26765 1.69781 6.60763 1.3871 7.02654 1.3871Z" fill="#AA8453"/>
<path d="M13.0979 17.3389C10.1693 17.3389 7.78564 19.5173 7.78564 22.1937V22.8873H20.6868V22.1937C20.6868 19.5173 18.3031 17.3389 15.3746 17.3389H13.0979ZM19.0924 21.5002H9.38008C9.73297 19.9196 11.2652 18.726 13.0979 18.726H15.3746C17.2073 18.726 18.7403 19.9196 19.0924 21.5002Z" fill="#AA8453"/>
<path d="M41.1763 22.1937C41.1763 19.5173 38.7927 17.3389 35.8641 17.3389H33.5874C30.6588 17.3389 28.2751 19.5173 28.2751 22.1937V22.8873H41.1763V22.1937ZM29.8696 21.5002C30.2225 19.9196 31.7547 18.726 33.5874 18.726H35.8641C37.6968 18.726 39.2298 19.9196 39.5819 21.5002H29.8696Z" fill="#AA8453"/>
<path d="M44.9709 34.6772H43.4531V36.0643H44.9709V34.6772Z" fill="#AA8453"/>
<path d="M41.9357 34.6772H37.3823V36.0643H41.9357V34.6772Z" fill="#AA8453"/>
</g>
<defs>
<clipPath id="clip0_26_4664">
<rect width="47.0514" height="43" fill="white" transform="translate(0.955322)"/>
</clipPath>
</defs>
</svg>
