<svg width="39" height="44" viewBox="0 0 39 44" fill="none" xmlns="http://www.w3.org/2000/svg">
<path d="M29.5059 40.0832L24.0087 33.8332L26.3275 31.4165L29.5059 34.729L36.6823 27.2498L39.0012 30.1873L29.5059 40.0832ZM14.0136 39.7498H19.6109C20.0906 40.604 20.6703 41.3957 21.31 42.104C20.5904 43.2082 19.391 43.9165 18.0117 43.9165C16.9513 43.9165 15.9344 43.4775 15.1846 42.6961C14.4349 41.9147 14.0136 40.8549 14.0136 39.7498ZM0.0206299 37.6665V35.5832L4.01863 31.4165V18.9165C4.01786 15.7753 4.99029 12.7178 6.79121 10.1991C8.59212 7.68027 11.1253 5.83482 14.0136 4.93734V4.33317C14.0136 3.2281 14.4349 2.16829 15.1846 1.38689C15.9344 0.605491 16.9513 0.166504 18.0117 0.166504C19.072 0.166504 20.0889 0.605491 20.8387 1.38689C21.5884 2.16829 22.0097 3.2281 22.0097 4.33317V4.93734C24.898 5.83482 27.4312 7.68027 29.2321 10.1991C31.033 12.7178 32.0054 15.7753 32.0047 18.9165V21.1665L30.0057 20.9998L28.0067 21.1665V18.9165C28.0067 13.1665 23.5289 8.49984 18.0117 8.49984C12.4944 8.49984 8.01664 13.1665 8.01664 18.9165V33.4998H18.0117C18.0117 34.9582 18.2515 36.354 18.6913 37.6665H0.0206299Z" fill="#AA8453"/>
</svg>
