<svg width="43" height="42" viewBox="0 0 43 42" fill="none" xmlns="http://www.w3.org/2000/svg">
<path d="M18.1807 0.167969L34.0746 4.91797C34.5179 5.05035 34.9053 5.31481 35.1803 5.67274C35.4554 6.03066 35.6036 6.46332 35.6034 6.90755V10.5846H39.9591C40.5367 10.5846 41.0906 10.8041 41.4991 11.1948C41.9075 11.5855 42.1369 12.1154 42.1369 12.668V29.3346C42.1369 29.8872 41.9075 30.4171 41.4991 30.8078C41.0906 31.1985 40.5367 31.418 39.9591 31.418L32.9465 31.42C32.1036 32.4826 31.0801 33.42 29.8975 34.1909L18.1807 41.8346L6.46398 34.193C4.70543 33.046 3.26638 31.5055 2.27196 29.7053C1.27753 27.9051 0.757836 25.8999 0.758057 23.8638V6.90755C0.758319 6.46368 0.906774 6.03149 1.18178 5.67398C1.45679 5.31647 1.84397 5.05233 2.2869 4.92005L18.1807 0.167969ZM18.1807 4.53047L5.11373 8.4388V23.8638C5.11342 25.1393 5.41917 26.3978 6.00743 27.5424C6.5957 28.687 7.45078 29.6872 8.50679 30.4659L8.9184 30.7492L18.1807 36.7909L26.4173 31.418H16.0029C15.4253 31.418 14.8714 31.1985 14.4629 30.8078C14.0545 30.4171 13.8251 29.8872 13.8251 29.3346V12.668C13.8251 12.1154 14.0545 11.5855 14.4629 11.1948C14.8714 10.8041 15.4253 10.5846 16.0029 10.5846H31.2477V8.4388L18.1807 4.53047ZM18.1807 21.0013V27.2513H37.7813V21.0013H18.1807ZM18.1807 16.8346H37.7813V14.7513H18.1807V16.8346Z" fill="#AA8453"/>
</svg>
