<svg width="230" height="100" viewBox="0 0 230 100" fill="none" xmlns="http://www.w3.org/2000/svg">
<g clip-path="url(#clip0_315_5107)">
<path d="M26.0129 53.7348C26.2425 53.7348 26.3188 53.6003 26.2425 53.3326L20.7871 37.8276C20.4806 36.987 20.1935 36.987 19.9258 37.8276L14.8726 53.3326C14.7581 53.6003 14.8157 53.7348 15.0452 53.7348H26.0129ZM20.0409 30.7648C20.3855 29.8084 20.6338 29.1961 20.7871 28.9271C20.9397 28.66 21.1123 28.5249 21.3044 28.5249C21.4951 28.5249 21.6671 28.6497 21.821 28.898C21.9736 29.1482 22.2232 29.7121 22.5672 30.5921C22.7198 30.9374 23.0741 31.8375 23.6302 33.291C24.1843 34.7472 24.8542 36.5176 25.6398 38.6035C26.4242 40.6901 27.2951 42.9772 28.2521 45.4653C29.2091 47.9541 30.1564 50.4131 31.0946 52.8444C32.0322 55.2756 32.9323 57.5814 33.7935 59.7637C34.6555 61.946 35.3725 63.7642 35.9474 65.2191C36.444 66.4826 36.9322 67.5159 37.4113 68.3202C37.8898 69.124 38.3301 69.7557 38.7323 70.2148C39.1345 70.6739 39.5166 70.9998 39.8807 71.1912C40.2441 71.3832 40.579 71.5164 40.8855 71.5933C41.3064 71.7459 41.7183 71.8423 42.1199 71.8804C42.5221 71.9186 42.8758 71.9373 43.1829 71.9373C43.565 71.9373 43.7564 72.0524 43.7564 72.282C43.7564 72.474 43.642 72.5982 43.4124 72.6551C43.1829 72.7133 42.9145 72.7417 42.6081 72.7417H39.2198C38.4161 72.7417 37.5264 72.732 36.55 72.7133C35.5736 72.6932 34.5882 72.6648 33.5924 72.6273C33.0558 72.5878 32.6355 72.56 32.3296 72.5406C32.0225 72.5219 31.8699 72.4171 31.8699 72.2251C31.8699 72.0337 32.0037 71.9005 32.2721 71.8229C32.4628 71.7459 32.6167 71.5836 32.7312 71.3347C32.8463 71.0864 32.8081 70.7321 32.6167 70.273L27.2757 56.1459C27.1613 55.9164 26.9893 55.8019 26.7598 55.8019H14.4135C14.1451 55.8019 13.9544 55.9552 13.8387 56.261L10.3935 66.425C9.8575 67.918 9.5898 69.2015 9.5898 70.273C9.5898 70.8465 9.82839 71.2681 10.3075 71.5351C10.786 71.8041 11.2736 71.9373 11.7714 71.9373H12.3463C12.7284 71.9373 12.9198 72.0524 12.9198 72.282C12.9198 72.5878 12.6334 72.7417 12.0592 72.7417C11.7145 72.7417 11.3124 72.732 10.8533 72.7133C10.3935 72.6932 9.9532 72.6738 9.53226 72.6551C9.11067 72.6357 8.71883 72.6169 8.35543 72.5982C7.99075 72.5788 7.73275 72.5691 7.58015 72.5691C7.42626 72.5691 7.12948 72.5788 6.68978 72.5982C6.24945 72.6169 5.72245 72.6357 5.11076 72.6551C4.49778 72.6738 3.84729 72.6932 3.15865 72.7133C2.46937 72.732 1.78009 72.7417 1.09081 72.7417C0.364027 72.7417 0 72.5878 0 72.282C0 72.0524 0.171985 71.9373 0.516625 71.9373C0.708667 71.9373 0.975727 71.9289 1.32101 71.9089C1.66501 71.8901 1.9521 71.861 2.18229 71.8229C3.52206 71.6315 4.52623 71.047 5.19676 70.0712C5.866 69.0949 6.46928 67.8805 7.00596 66.425L20.0409 30.7648Z" fill="#AA8453"/>
<path d="M52.5992 73.2005C51.2976 72.9709 50.0529 72.5688 48.867 71.9946C48.4448 71.8032 48.1965 71.5833 48.1202 71.3337C48.0433 71.0861 48.0051 70.5791 48.0051 69.8116C48.0051 68.3581 48.0433 67.0946 48.1202 66.0219C48.1965 64.9505 48.2541 64.1842 48.2929 63.7251C48.3304 63.1134 48.4836 62.8069 48.752 62.8069C49.0196 62.8069 49.1541 63.0177 49.1541 63.438C49.1541 63.7064 49.1632 64.0219 49.1826 64.386C49.2013 64.75 49.2492 65.1418 49.3261 65.5628C49.5557 66.6348 49.9378 67.544 50.4745 68.2908C51.0105 69.037 51.6707 69.6403 52.4557 70.0994C53.24 70.5585 54.0923 70.8947 55.0111 71.1042C55.9299 71.3156 56.8675 71.4197 57.8251 71.4197C59.203 71.4197 60.4089 71.1902 61.4429 70.7311C62.4761 70.272 63.3277 69.6888 63.9976 68.9794C64.6675 68.272 65.1751 67.458 65.5197 66.5392C65.8643 65.621 66.0364 64.7015 66.0364 63.7833C66.0364 62.7876 65.9219 61.8791 65.6924 61.0553C65.4622 60.2322 65.0884 59.4284 64.5725 58.6441C64.0552 57.8591 63.3756 57.0554 62.5337 56.2316C61.6912 55.4091 60.6572 54.4806 59.4326 53.4467L56.8487 51.3219C55.3176 50.0591 54.0729 48.8914 53.1165 47.8193C52.1589 46.7479 51.4024 45.7042 50.8483 44.6891C50.2928 43.6758 49.9094 42.6995 49.6999 41.7606C49.4891 40.8237 49.3837 39.857 49.3837 38.8612C49.3837 37.3307 49.6611 35.9327 50.2165 34.6693C50.7706 33.4065 51.566 32.3143 52.5992 31.3962C53.6325 30.4767 54.8766 29.7693 56.3315 29.2714C57.7863 28.7742 59.4326 28.5239 61.2702 28.5239C62.3798 28.5239 63.3665 28.5724 64.2278 28.6681C65.0884 28.7638 65.8831 28.9074 66.6105 29.0988C67.1466 29.2145 67.5578 29.2908 67.8455 29.329C68.1326 29.3671 68.3913 29.3859 68.6208 29.3859C69.003 29.3859 69.195 29.521 69.195 29.788C69.195 29.9413 69.1562 30.5058 69.0799 31.4821C69.003 32.4579 68.9648 33.9224 68.9648 35.8745C68.9648 36.7559 68.8303 37.1962 68.5633 37.1962C68.3713 37.1962 68.2561 37.129 68.2186 36.9945C68.1798 36.8613 68.1411 36.6789 68.1036 36.4494C68.0654 36.1041 67.9787 35.6159 67.8455 34.9855C67.7104 34.3537 67.5481 33.8849 67.3567 33.5778C67.2798 33.4258 67.1078 33.1756 66.8407 32.8316C66.5724 32.487 66.1598 32.143 65.6057 31.7983C65.0503 31.4531 64.3326 31.1569 63.4525 30.908C62.5712 30.6597 61.4804 30.5349 60.1794 30.5349C58.1885 30.5349 56.5131 31.1188 55.1546 32.2865C53.7955 33.4537 53.1165 35.0909 53.1165 37.1962C53.1165 37.9999 53.2213 38.7565 53.4321 39.4639C53.6422 40.1732 54.0153 40.8909 54.5514 41.6177C55.0874 42.3451 55.8051 43.1295 56.7052 43.9713C57.604 44.8145 58.744 45.7715 60.1219 46.8429L61.7293 48.1064C63.4144 49.4468 64.802 50.6896 65.8928 51.8386C66.9843 52.9876 67.8455 54.0875 68.4766 55.1408C69.1084 56.1941 69.5397 57.2468 69.7692 58.2988C69.9988 59.3521 70.1139 60.4527 70.1139 61.6004C70.1139 62.1752 70.0459 62.8638 69.9128 63.6682C69.7776 64.472 69.5293 65.3145 69.1659 66.1945C68.8019 67.0758 68.3046 67.9462 67.6729 68.8074C67.0418 69.6694 66.2278 70.444 65.2326 71.1333C64.0073 72.0146 62.6482 72.6347 61.1558 72.9987C59.6628 73.3628 58.131 73.5451 56.5617 73.5451C55.2212 73.5451 53.9002 73.43 52.5992 73.2005Z" fill="#AA8453"/>
<path d="M119.958 56.0883C119.958 58.8448 119.965 61.3052 119.985 63.4674C120.004 65.631 120.09 67.3244 120.243 68.5497C120.32 69.3929 120.493 70.0996 120.76 70.6738C121.029 71.2487 121.602 71.5933 122.483 71.7077C122.905 71.7853 123.373 71.8422 123.89 71.8804C124.408 71.9185 124.799 71.9373 125.068 71.9373C125.374 71.9373 125.527 72.0524 125.527 72.2819C125.527 72.5878 125.219 72.7417 124.609 72.7417C123.804 72.7417 123 72.732 122.195 72.7132C121.393 72.6932 120.656 72.6738 119.985 72.655C119.316 72.6356 118.759 72.6169 118.321 72.5981C117.88 72.5787 117.621 72.569 117.544 72.569C117.468 72.569 117.21 72.5787 116.77 72.5981C116.329 72.6169 115.821 72.6356 115.248 72.655C114.674 72.6738 114.08 72.6932 113.468 72.7132C112.856 72.732 112.339 72.7417 111.917 72.7417C111.305 72.7417 110.998 72.5878 110.998 72.2819C110.998 72.0524 111.151 71.9373 111.458 71.9373C111.724 71.9373 112.012 71.9185 112.32 71.8804C112.626 71.8422 112.912 71.7853 113.18 71.7077C113.755 71.5933 114.147 71.2487 114.358 70.6738C114.567 70.0996 114.732 69.3929 114.846 68.5497C114.998 67.3244 115.084 65.631 115.105 63.4674C115.124 61.3052 115.133 58.8448 115.133 56.0883V50.0594C115.133 49.8299 115.019 49.7141 114.789 49.7141H90.4413C90.2118 49.7141 90.0967 49.8299 90.0967 50.0594V56.0883C90.0967 58.8448 90.1058 61.3052 90.1252 63.4674C90.1439 65.631 90.2305 67.3244 90.3838 68.5497C90.4601 69.3929 90.6321 70.0996 90.9004 70.6738C91.1675 71.2487 91.7423 71.5933 92.623 71.7077C93.0439 71.7853 93.5134 71.8422 94.03 71.8804C94.5467 71.9185 94.9391 71.9373 95.2075 71.9373C95.5133 71.9373 95.6665 72.0524 95.6665 72.2819C95.6665 72.5878 95.3601 72.7417 94.7484 72.7417C93.944 72.7417 93.1403 72.732 92.3359 72.7132C91.5321 72.6932 90.7951 72.6738 90.1252 72.655C89.4553 72.6356 88.8992 72.6169 88.4602 72.5981C88.0192 72.5787 87.7611 72.569 87.6849 72.569C87.6079 72.569 87.3493 72.5787 86.9096 72.5981C86.4686 72.6169 85.9623 72.6356 85.3875 72.655C84.8139 72.6738 84.2197 72.6932 83.6074 72.7132C82.995 72.732 82.4784 72.7417 82.0574 72.7417C81.4445 72.7417 81.1386 72.5878 81.1386 72.2819C81.1386 72.0524 81.2912 71.9373 81.5977 71.9373C81.8654 71.9373 82.1525 71.9185 82.459 71.8804C82.7655 71.8422 83.0519 71.7853 83.3203 71.7077C83.8951 71.5933 84.287 71.2487 84.4978 70.6738C84.7079 70.0996 84.8709 69.3929 84.986 68.5497C85.1386 67.3244 85.2245 65.631 85.2446 63.4674C85.2633 61.3052 85.273 58.8448 85.273 56.0883V37.1389C85.273 36.2589 85.2633 35.5599 85.2446 35.0426C85.2245 34.526 85.1961 34.0378 85.1579 33.5787C85.081 32.5836 84.8896 31.8374 84.5838 31.3389C84.2773 30.8423 83.6455 30.4983 82.6885 30.3056C82.459 30.2293 82.1435 30.1815 81.7413 30.1621C81.3391 30.1433 81.0035 30.133 80.7364 30.133C80.43 30.133 80.2773 30.0185 80.2773 29.789C80.2773 29.4825 80.5832 29.3299 81.1962 29.3299C81.8467 29.3299 82.536 29.3389 83.2634 29.3583C83.9902 29.3784 84.6697 29.3971 85.3021 29.4152C85.9332 29.4353 86.4686 29.454 86.9096 29.4734C87.3493 29.4928 87.6079 29.5012 87.6849 29.5012C87.7611 29.5012 88.0192 29.4928 88.4602 29.4734C88.8992 29.454 89.4074 29.4353 89.9816 29.4152C90.5558 29.3971 91.1487 29.3784 91.7617 29.3583C92.374 29.3389 92.8907 29.3299 93.3123 29.3299C93.9239 29.3299 94.2311 29.4825 94.2311 29.789C94.2311 30.0185 94.0772 30.133 93.772 30.133C93.58 30.133 93.3782 30.1433 93.1687 30.1621C92.9579 30.1815 92.6805 30.2293 92.3359 30.3056C91.5697 30.4589 91.044 30.7938 90.7569 31.3111C90.4698 31.8271 90.2874 32.5836 90.2118 33.5787C90.173 34.0378 90.1439 34.526 90.1252 35.0426C90.1058 35.5599 90.0967 36.2589 90.0967 37.1389V47.1878C90.0967 47.4174 90.2118 47.5325 90.4413 47.5325H114.789C115.019 47.5325 115.133 47.4174 115.133 47.1878V37.1389C115.133 36.2589 115.124 35.5599 115.105 35.0426C115.084 34.526 115.056 34.0378 115.019 33.5787C114.941 32.5836 114.75 31.8374 114.444 31.3389C114.138 30.8423 113.505 30.4983 112.549 30.3056C112.32 30.2293 112.004 30.1815 111.602 30.1621C111.2 30.1433 110.864 30.133 110.597 30.133C110.29 30.133 110.138 30.0185 110.138 29.789C110.138 29.4825 110.444 29.3299 111.056 29.3299C111.706 29.3299 112.397 29.3389 113.122 29.3583C113.85 29.3784 114.53 29.3971 115.162 29.4152C115.793 29.4353 116.329 29.454 116.77 29.4734C117.21 29.4928 117.468 29.5012 117.544 29.5012C117.621 29.5012 117.88 29.4928 118.321 29.4734C118.759 29.454 119.267 29.4353 119.842 29.4152C120.417 29.3971 121.008 29.3784 121.623 29.3583C122.235 29.3389 122.752 29.3299 123.172 29.3299C123.784 29.3299 124.092 29.4825 124.092 29.789C124.092 30.0185 123.939 30.133 123.633 30.133C123.44 30.133 123.239 30.1433 123.03 30.1621C122.819 30.1815 122.541 30.2293 122.195 30.3056C121.431 30.4589 120.904 30.7938 120.616 31.3111C120.331 31.8271 120.148 32.5836 120.071 33.5787C120.032 34.0378 120.004 34.526 119.985 35.0426C119.965 35.5599 119.958 36.2589 119.958 37.1389V56.0883Z" fill="#AA8453"/>
<path d="M139.279 58.4424C140.217 61.1607 141.519 63.4775 143.184 65.3914C144.85 67.3054 146.792 68.779 149.013 69.8123C151.232 70.8462 153.644 71.3628 156.248 71.3628C157.549 71.3628 159.1 71.1242 160.9 70.6451C162.698 70.1666 164.431 69.2193 166.096 67.8026C167.762 66.3872 169.178 64.386 170.346 61.8021C171.513 59.2177 172.096 55.8398 172.096 51.6672C172.096 48.2215 171.608 45.1773 170.633 42.5365C169.656 39.8951 168.365 37.6844 166.757 35.9036C165.149 34.1242 163.292 32.7747 161.186 31.8553C159.081 30.9371 156.899 30.4767 154.641 30.4767C152.228 30.4767 149.997 30.8698 147.95 31.6548C145.902 32.4398 144.131 33.6269 142.639 35.215C141.146 36.8037 139.978 38.7752 139.136 41.1289C138.293 43.4838 137.873 46.2312 137.873 49.3692C137.873 52.6999 138.34 55.7247 139.279 58.4424ZM132.991 46.0967C133.374 44.3735 133.967 42.6801 134.772 41.0144C135.575 39.3494 136.58 37.7607 137.786 36.2483C138.992 34.7365 140.437 33.4064 142.122 32.2574C143.805 31.1091 145.719 30.1999 147.864 29.5301C150.008 28.8602 152.401 28.5239 155.042 28.5239C158.258 28.5239 161.244 29.0225 164 30.0176C166.757 31.0134 169.139 32.4398 171.149 34.2955C173.159 36.1532 174.738 38.4112 175.886 41.072C177.035 43.7334 177.609 46.7285 177.609 50.0591C177.609 53.274 177.064 56.3092 175.973 59.1601C174.882 62.0129 173.34 64.5011 171.35 66.6252C169.359 68.7499 166.948 70.4356 164.115 71.6784C161.281 72.9224 158.143 73.5451 154.698 73.5451C150.755 73.5451 147.376 72.8565 144.562 71.4779C141.749 70.0994 139.442 68.3199 137.642 66.137C135.843 63.9553 134.523 61.5344 133.681 58.8736C132.838 56.2129 132.417 53.5812 132.417 50.9773C132.417 49.4468 132.608 47.8193 132.991 46.0967Z" fill="#AA8453"/>
<path d="M191.506 56.0877V37.1383C191.506 36.2583 191.495 35.5593 191.477 35.0426C191.457 34.5253 191.428 34.0372 191.391 33.5781C191.314 32.5836 191.122 31.8368 190.816 31.3382C190.509 30.8423 189.878 30.4976 188.922 30.3056C188.692 30.2287 188.375 30.1815 187.973 30.1614C187.572 30.1433 187.236 30.133 186.969 30.133C186.662 30.133 186.509 30.0179 186.509 29.7883C186.509 29.4825 186.815 29.3292 187.428 29.3292C188.079 29.3292 188.758 29.3383 189.466 29.3583C190.175 29.3777 190.825 29.3965 191.419 29.4152C192.013 29.4346 192.529 29.4534 192.97 29.4728C193.409 29.4928 193.668 29.5012 193.744 29.5012C193.859 29.5012 194.137 29.4928 194.578 29.4728C195.017 29.4534 195.515 29.4346 196.07 29.4152C196.625 29.3965 197.199 29.3777 197.793 29.3583C198.386 29.3383 198.893 29.3292 199.315 29.3292C199.927 29.3292 200.233 29.4825 200.233 29.7883C200.233 30.0179 200.08 30.133 199.774 30.133C199.582 30.133 199.381 30.1433 199.171 30.1614C198.96 30.1815 198.683 30.2287 198.339 30.3056C197.573 30.4582 197.046 30.7932 196.76 31.3104C196.472 31.8264 196.29 32.5836 196.214 33.5781C196.175 34.0372 196.146 34.5253 196.128 35.0426C196.108 35.5593 196.099 36.2583 196.099 37.1383V49.4277H196.329C196.482 49.2363 196.874 48.8153 197.506 48.1636C198.138 47.5131 198.893 46.7378 199.774 45.8384C200.654 44.9396 201.611 43.9632 202.646 42.9099C203.679 41.8572 204.664 40.8517 205.603 39.8954C206.54 38.9391 207.383 38.0668 208.129 37.2825C208.876 36.4981 209.421 35.9143 209.766 35.5308C210.569 34.6889 211.287 33.9143 211.919 33.205C212.551 32.4976 212.866 31.8937 212.866 31.3964C212.866 30.7841 212.617 30.3819 212.12 30.1905C211.775 30.0373 211.604 29.8847 211.604 29.7308C211.604 29.4637 211.834 29.3292 212.293 29.3292C212.866 29.3292 213.556 29.3583 214.36 29.4152C215.164 29.4728 215.91 29.5012 216.6 29.5012C216.676 29.5012 216.933 29.4928 217.375 29.4728C217.815 29.4534 218.331 29.4346 218.925 29.4152C219.518 29.3965 220.111 29.3777 220.705 29.3583C221.299 29.3383 221.767 29.3292 222.112 29.3292C222.686 29.3292 222.973 29.4637 222.973 29.7308C222.973 29.9991 222.781 30.133 222.4 30.133C221.442 30.133 220.369 30.4013 219.184 30.9373C218.609 31.205 218.082 31.4928 217.605 31.7986C217.125 32.1045 216.647 32.4581 216.168 32.8603C215.689 33.2625 215.201 33.7126 214.704 34.2098C214.207 34.7083 213.632 35.2638 212.981 35.8748C212.752 36.1044 212.302 36.546 211.632 37.1965C210.962 37.8476 210.196 38.5932 209.335 39.435C208.474 40.2782 207.556 41.1776 206.579 42.134C205.603 43.0916 204.684 44.0007 203.822 44.862C202.961 45.7233 202.215 46.4791 201.583 47.1309C200.952 47.7821 200.539 48.2217 200.348 48.4513C200.579 48.719 201.085 49.255 201.87 50.0594C202.654 50.8625 203.564 51.8098 204.598 52.9012C205.631 53.9927 206.742 55.1508 207.929 56.3754C209.115 57.6008 210.255 58.7588 211.345 59.8497C212.436 60.9405 213.413 61.9266 214.274 62.8072C215.135 63.6879 215.757 64.2996 216.14 64.6449C217.326 65.7551 218.312 66.6739 219.098 67.4007C219.882 68.1288 220.581 68.7211 221.193 69.1815C221.805 69.6406 222.371 70.0233 222.887 70.3292C223.404 70.6363 224.007 70.9234 224.697 71.1905C225.461 71.4976 226.198 71.6981 226.907 71.7931C227.615 71.8895 228.064 71.9373 228.257 71.9373C228.753 71.9373 229.003 72.0517 229.003 72.2813C229.003 72.4352 228.916 72.5503 228.744 72.6266C228.572 72.7022 228.237 72.7417 227.739 72.7417H222.686C222.112 72.7417 221.499 72.7022 220.849 72.6266C220.082 72.5503 219.403 72.4171 218.81 72.2244C218.216 72.033 217.661 71.7931 217.144 71.5066C216.628 71.2196 216.112 70.8749 215.594 70.4727C215.078 70.0705 214.512 69.6218 213.901 69.1233C213.479 68.7793 212.809 68.1572 211.891 67.2572C210.972 66.3584 209.947 65.3044 208.818 64.0991C207.689 62.8932 206.493 61.611 205.23 60.2512C203.966 58.8933 202.75 57.5814 201.583 56.3185C200.415 55.0551 199.372 53.9061 198.453 52.8728C197.535 51.8389 196.845 51.0351 196.386 50.4603H196.099V56.0877C196.099 58.8448 196.108 61.3045 196.128 63.4668C196.146 65.6303 196.232 67.3244 196.386 68.5497C196.463 69.3923 196.634 70.0996 196.903 70.6732C197.171 71.2486 197.744 71.5927 198.626 71.7077C199.046 71.7847 199.459 71.8416 199.86 71.8804C200.262 71.9185 200.597 71.9373 200.865 71.9373C201.171 71.9373 201.325 72.0517 201.325 72.2813C201.325 72.5878 201.018 72.7417 200.406 72.7417C199.717 72.7417 198.998 72.7313 198.253 72.7126C197.506 72.6932 196.826 72.6731 196.214 72.655C195.602 72.635 195.074 72.6162 194.635 72.5981C194.194 72.5781 193.917 72.569 193.802 72.569C193.687 72.569 193.419 72.5781 192.998 72.5981C192.577 72.6162 192.089 72.635 191.533 72.655C190.979 72.6731 190.404 72.6932 189.811 72.7126C189.217 72.7313 188.71 72.7417 188.289 72.7417C187.676 72.7417 187.371 72.5878 187.371 72.2813C187.371 72.0517 187.523 71.9373 187.83 71.9373C188.097 71.9373 188.385 71.9185 188.692 71.8804C188.997 71.8416 189.285 71.7847 189.554 71.7077C190.127 71.5927 190.519 71.2486 190.73 70.6732C190.94 70.0996 191.103 69.3923 191.218 68.5497C191.37 67.3244 191.457 65.6303 191.477 63.4668C191.495 61.3045 191.506 58.8448 191.506 56.0877Z" fill="#AA8453"/>
<path d="M83.2749 13.5224C83.2749 14.8745 83.2795 16.081 83.2892 17.1428C83.2982 18.2039 83.3403 19.0341 83.4159 19.6354C83.4534 20.0486 83.5381 20.3958 83.6694 20.6777C83.8007 20.9597 84.0819 21.1284 84.5145 21.1841C84.7214 21.2229 84.951 21.2506 85.2051 21.2694C85.4586 21.2881 85.6512 21.2972 85.7825 21.2972C85.9325 21.2972 86.0075 21.3534 86.0075 21.466C86.0075 21.6166 85.8575 21.6923 85.5568 21.6923C85.1631 21.6923 84.768 21.6864 84.3735 21.6767C83.9798 21.6677 83.6177 21.6587 83.2892 21.649C82.9607 21.6399 82.6878 21.6302 82.4725 21.6211C82.2559 21.6114 82.1298 21.6069 82.0917 21.6069C82.0542 21.6069 81.9274 21.6114 81.7115 21.6211C81.4955 21.6302 81.2472 21.6399 80.9653 21.649C80.6834 21.6587 80.3924 21.6677 80.0917 21.6767C79.791 21.6864 79.5376 21.6923 79.3313 21.6923C79.0306 21.6923 78.8806 21.6166 78.8806 21.466C78.8806 21.3534 78.955 21.2972 79.1063 21.2972C79.2369 21.2972 79.3779 21.2881 79.5292 21.2694C79.6785 21.2506 79.8195 21.2229 79.9507 21.1841C80.2327 21.1284 80.4247 20.9597 80.5282 20.6777C80.631 20.3958 80.7112 20.0486 80.7681 19.6354C80.8431 19.0341 80.8851 18.2039 80.8954 17.1428C80.9038 16.081 80.909 14.8745 80.909 13.5224V10.5642C80.909 10.4517 80.8521 10.3954 80.7396 10.3954H68.7955C68.683 10.3954 68.6267 10.4517 68.6267 10.5642V13.5224C68.6267 14.8745 68.6306 16.081 68.641 17.1428C68.65 18.2039 68.6921 19.0341 68.7677 19.6354C68.8052 20.0486 68.8893 20.3958 69.0205 20.6777C69.1524 20.9597 69.4344 21.1284 69.8663 21.1841C70.0726 21.2229 70.3028 21.2506 70.5556 21.2694C70.8097 21.2881 71.0017 21.2972 71.1336 21.2972C71.2837 21.2972 71.3593 21.3534 71.3593 21.466C71.3593 21.6166 71.208 21.6923 70.9086 21.6923C70.5135 21.6923 70.1191 21.6864 69.7254 21.6767C69.3303 21.6677 68.9695 21.6587 68.641 21.649C68.3112 21.6399 68.039 21.6302 67.823 21.6211C67.6077 21.6114 67.481 21.6069 67.4435 21.6069C67.4053 21.6069 67.2786 21.6114 67.0626 21.6211C66.8473 21.6302 66.5977 21.6399 66.3164 21.649C66.0352 21.6587 65.7429 21.6677 65.4435 21.6767C65.1429 21.6864 64.8894 21.6923 64.6831 21.6923C64.3824 21.6923 64.2324 21.6166 64.2324 21.466C64.2324 21.3534 64.3068 21.2972 64.4574 21.2972C64.5887 21.2972 64.7297 21.2881 64.8797 21.2694C65.0303 21.2506 65.1713 21.2229 65.3026 21.1841C65.5845 21.1284 65.7765 20.9597 65.8806 20.6777C65.9828 20.3958 66.063 20.0486 66.1192 19.6354C66.1936 19.0341 66.2369 18.2039 66.2459 17.1428C66.2556 16.081 66.2602 14.8745 66.2602 13.5224V4.22617C66.2602 3.7936 66.2556 3.45154 66.2459 3.19742C66.2369 2.94395 66.2221 2.70472 66.204 2.4797C66.1658 1.99151 66.0727 1.62488 65.9226 1.38046C65.772 1.13669 65.4616 0.967931 64.9928 0.873527C64.8797 0.836024 64.7251 0.81274 64.5279 0.803041C64.3301 0.793989 64.1658 0.789465 64.0346 0.789465C63.8839 0.789465 63.8096 0.732568 63.8096 0.620059C63.8096 0.470046 63.9596 0.394394 64.2602 0.394394C64.5797 0.394394 64.9172 0.399554 65.2748 0.409253C65.6311 0.418305 65.964 0.428004 66.2744 0.437056C66.5841 0.446755 66.8473 0.455827 67.0626 0.46488C67.2786 0.474579 67.4053 0.479087 67.4435 0.479087C67.481 0.479087 67.6077 0.474579 67.823 0.46488C68.039 0.455827 68.288 0.446755 68.5699 0.437056C68.8518 0.428004 69.1427 0.418305 69.4434 0.409253C69.7441 0.399554 69.9969 0.394394 70.2038 0.394394C70.5045 0.394394 70.6545 0.470046 70.6545 0.620059C70.6545 0.732568 70.5789 0.789465 70.4301 0.789465C70.3357 0.789465 70.2368 0.793989 70.134 0.803041C70.0305 0.81274 69.8941 0.836024 69.7254 0.873527C69.349 0.94918 69.0917 1.11341 68.9507 1.36624C68.8098 1.61971 68.7199 1.99151 68.683 2.4797C68.6643 2.70472 68.65 2.94395 68.641 3.19742C68.6306 3.45154 68.6267 3.7936 68.6267 4.22617V9.15589C68.6267 9.2684 68.683 9.32466 68.7955 9.32466H80.7396C80.8521 9.32466 80.909 9.2684 80.909 9.15589V4.22617C80.909 3.7936 80.9038 3.45154 80.8954 3.19742C80.8851 2.94395 80.8709 2.70472 80.8521 2.4797C80.8146 1.99151 80.7209 1.62488 80.5702 1.38046C80.4202 1.13669 80.1105 0.967931 79.641 0.873527C79.5292 0.836024 79.3733 0.81274 79.1761 0.803041C78.9795 0.793989 78.814 0.789465 78.6834 0.789465C78.5334 0.789465 78.4578 0.732568 78.4578 0.620059C78.4578 0.470046 78.6077 0.394394 78.9084 0.394394C79.2272 0.394394 79.566 0.399554 79.923 0.409253C80.2792 0.418305 80.6135 0.428004 80.9233 0.437056C81.233 0.446755 81.4955 0.455827 81.7115 0.46488C81.9274 0.474579 82.0542 0.479087 82.0917 0.479087C82.1298 0.479087 82.2559 0.474579 82.4725 0.46488C82.6878 0.455827 82.9374 0.446755 83.2187 0.437056C83.5006 0.428004 83.791 0.418305 84.0923 0.409253C84.3923 0.399554 84.6458 0.394394 84.8533 0.394394C85.1527 0.394394 85.304 0.470046 85.304 0.620059C85.304 0.732568 85.2283 0.789465 85.0777 0.789465C84.9839 0.789465 84.8857 0.793989 84.7822 0.803041C84.6788 0.81274 84.543 0.836024 84.3735 0.873527C83.9985 0.94918 83.7399 1.11341 83.5989 1.36624C83.458 1.61971 83.3694 1.99151 83.3319 2.4797C83.3125 2.70472 83.2982 2.94395 83.2892 3.19742C83.2795 3.45154 83.2749 3.7936 83.2749 4.22617V13.5224Z" fill="#AA8453"/>
<path d="M92.7549 14.6763C93.2153 16.0096 93.8535 17.1464 94.6708 18.0852C95.4875 19.0241 96.4406 19.7477 97.5301 20.2546C98.6183 20.7609 99.8016 21.015 101.079 21.015C101.718 21.015 102.479 20.898 103.361 20.6632C104.244 20.4279 105.093 19.963 105.911 19.2685C106.727 18.5734 107.422 17.5925 107.995 16.3245C108.568 15.0572 108.854 13.3999 108.854 11.3521C108.854 9.66257 108.616 8.16954 108.136 6.87374C107.657 5.57795 107.023 4.49295 106.235 3.62004C105.446 2.74647 104.534 2.08436 103.502 1.63367C102.469 1.18299 101.399 0.95796 100.291 0.95796C99.1072 0.95796 98.0124 1.15065 97.0083 1.53473C96.0034 1.92011 95.1357 2.50269 94.4031 3.2812C93.6705 4.06101 93.0976 5.02834 92.6851 6.18317C92.2713 7.33801 92.065 8.68619 92.065 10.2258C92.065 11.8597 92.2945 13.3437 92.7549 14.6763ZM89.6706 8.62024C89.8581 7.77512 90.1491 6.94422 90.5429 6.12692C90.938 5.30961 91.4306 4.5311 92.0223 3.78879C92.6139 3.04714 93.3233 2.39472 94.149 1.83088C94.976 1.26769 95.9149 0.821531 96.9669 0.493055C98.0183 0.164579 99.1925 -0.000305176 100.488 -0.000305176C102.065 -0.000305176 103.53 0.244109 104.882 0.732296C106.235 1.22113 107.404 1.92011 108.389 2.83053C109.376 3.74224 110.151 4.84987 110.713 6.15472C111.277 7.46086 111.559 8.92996 111.559 10.5633C111.559 12.1417 111.291 13.6301 110.756 15.0294C110.22 16.428 109.464 17.6488 108.488 18.6911C107.511 19.7334 106.328 20.5592 104.938 21.1695C103.549 21.7799 102.009 22.0851 100.319 22.0851C98.3842 22.0851 96.727 21.7476 95.3465 21.0706C93.966 20.3949 92.8344 19.522 91.9525 18.4512C91.0692 17.3811 90.4207 16.1939 90.0081 14.8884C89.5949 13.5823 89.3887 12.2917 89.3887 11.0146C89.3887 10.2633 89.4818 9.46535 89.6706 8.62024Z" fill="#AA8453"/>
<path d="M123.615 13.5221C123.615 14.8742 123.618 16.0808 123.629 17.1425C123.638 18.2036 123.68 19.0338 123.756 19.6351C123.793 20.0483 123.877 20.3955 124.008 20.6775C124.14 20.9594 124.422 21.1282 124.854 21.1838C125.06 21.2226 125.291 21.2504 125.543 21.2691C125.798 21.2879 125.99 21.2969 126.121 21.2969C126.271 21.2969 126.347 21.3532 126.347 21.4657C126.347 21.6163 126.196 21.692 125.896 21.692C125.501 21.692 125.107 21.6862 124.713 21.6765C124.318 21.6674 123.957 21.6584 123.629 21.6487C123.299 21.6396 123.027 21.6299 122.811 21.6209C122.596 21.6112 122.469 21.6066 122.431 21.6066C122.393 21.6066 122.266 21.6112 122.05 21.6209C121.835 21.6299 121.586 21.6396 121.304 21.6487C121.023 21.6584 120.731 21.6674 120.431 21.6765C120.13 21.6862 119.877 21.692 119.671 21.692C119.37 21.692 119.22 21.6163 119.22 21.4657C119.22 21.3532 119.295 21.2969 119.445 21.2969C119.577 21.2969 119.717 21.2879 119.868 21.2691C120.018 21.2504 120.159 21.2226 120.29 21.1838C120.572 21.1282 120.764 20.9594 120.868 20.6775C120.971 20.3955 121.051 20.0483 121.107 19.6351C121.181 19.0338 121.225 18.2036 121.234 17.1425C121.243 16.0808 121.248 14.8742 121.248 13.5221V1.60587L117.079 1.66211C116.646 1.66211 116.276 1.68151 115.966 1.71836C115.656 1.75651 115.388 1.80759 115.163 1.87354C114.937 1.9395 114.75 2.0281 114.6 2.14061C114.45 2.25376 114.318 2.39472 114.206 2.56348C114.055 2.8079 113.947 2.99089 113.881 3.1131C113.815 3.23531 113.764 3.34329 113.726 3.4364C113.651 3.62457 113.557 3.71833 113.445 3.71833C113.351 3.71833 113.304 3.63427 113.304 3.46486C113.304 3.38985 113.332 3.20684 113.388 2.91587C113.445 2.6249 113.511 2.31001 113.585 1.97183C113.661 1.63431 113.731 1.32459 113.797 1.04267C113.862 0.760754 113.904 0.591987 113.924 0.535086C113.961 0.441328 114.003 0.328817 114.051 0.197556C114.097 0.066295 114.149 -0.000305176 114.206 -0.000305176C114.299 -0.000305176 114.435 0.0468886 114.613 0.140646C114.792 0.235051 115.069 0.300358 115.445 0.338507C115.857 0.376011 116.29 0.408993 116.741 0.436797C117.191 0.464601 117.501 0.478828 117.67 0.478828H128.234C128.685 0.478828 129.074 0.464601 129.404 0.436797C129.732 0.408993 130.009 0.376011 130.234 0.338507C130.44 0.300358 130.61 0.268037 130.741 0.239587C130.872 0.211136 130.966 0.197556 131.023 0.197556C131.098 0.197556 131.14 0.229891 131.149 0.295845C131.159 0.361799 131.164 0.441328 131.164 0.535086C131.164 0.742646 131.159 1.00515 131.149 1.32458C131.14 1.64335 131.131 1.96278 131.122 2.28156C131.112 2.60163 131.103 2.88744 131.094 3.14156C131.084 3.39438 131.08 3.55926 131.08 3.63426C131.08 3.87868 131.013 4.00023 130.882 4.00023C130.807 4.00023 130.756 3.97244 130.727 3.91619C130.699 3.85929 130.675 3.72802 130.657 3.52175L130.629 3.21137C130.61 3.0051 130.544 2.8079 130.432 2.61974C130.319 2.43223 130.136 2.27252 129.882 2.14061C129.629 2.00999 129.281 1.90136 128.84 1.81731C128.398 1.7326 127.839 1.6815 127.164 1.66211L123.615 1.60587V13.5221Z" fill="#AA8453"/>
<path d="M137.081 13.523V4.22672C137.081 3.79479 137.076 3.45211 137.067 3.19799C137.058 2.94517 137.043 2.70527 137.025 2.48025C136.987 1.99206 136.893 1.62543 136.743 1.38101C136.593 1.13789 136.282 0.968485 135.814 0.874727C135.701 0.836577 135.546 0.813294 135.349 0.804241C135.151 0.794542 134.987 0.790014 134.855 0.790014C134.705 0.790014 134.63 0.733764 134.63 0.620608C134.63 0.470595 134.78 0.394943 135.081 0.394943H136.096C136.452 0.394943 136.79 0.405293 137.109 0.423398L138.264 0.479656H141.307C142.077 0.479656 142.795 0.475774 143.462 0.465429C144.128 0.456376 144.546 0.451852 144.715 0.451852C145.26 0.414349 145.663 0.367136 145.926 0.310881C146.002 0.292776 146.067 0.264338 146.124 0.226188C146.18 0.189331 146.245 0.16993 146.321 0.16993C146.395 0.16993 146.434 0.254634 146.434 0.423398C146.434 0.517802 146.406 0.66328 146.349 0.859848C146.293 1.05706 146.245 1.35322 146.208 1.74765C146.208 1.82265 146.203 1.94487 146.194 2.11363C146.185 2.2824 146.171 2.46602 146.152 2.66323C146.133 2.86045 146.119 3.04861 146.11 3.22643C146.1 3.40554 146.086 3.53164 146.067 3.60729C146.049 3.6823 146.025 3.75277 145.997 3.81808C145.969 3.88403 145.926 3.91702 145.87 3.91702C145.72 3.91702 145.645 3.7948 145.645 3.55038C145.645 3.45662 145.635 3.30662 145.616 3.0997C145.597 2.89343 145.551 2.70527 145.475 2.53651C145.381 2.31149 145.212 2.1188 144.969 1.95909C144.724 1.79937 144.227 1.67263 143.475 1.57887C143.363 1.56012 143.11 1.54591 142.715 1.53621C142.321 1.52716 141.908 1.51811 141.475 1.50841C141.043 1.49871 140.639 1.49418 140.264 1.49418H139.616C139.504 1.49418 139.448 1.58859 139.448 1.7761V9.55088C139.448 9.73904 139.504 9.8328 139.616 9.8328H141.729C142.236 9.8328 142.715 9.82762 143.166 9.81857C143.616 9.80952 143.926 9.79529 144.095 9.77589C144.434 9.73903 144.706 9.70154 144.913 9.66339C145.119 9.62589 145.288 9.53213 145.42 9.38212C145.626 9.1377 145.767 9.01549 145.842 9.01549C145.936 9.01549 145.983 9.09049 145.983 9.24115C145.983 9.33491 145.955 9.50432 145.898 9.74809C145.843 9.9925 145.795 10.3494 145.757 10.8189C145.738 10.9689 145.725 11.1331 145.715 11.3116C145.706 11.4907 145.696 11.6685 145.687 11.847C145.677 12.0254 145.669 12.1852 145.66 12.3255C145.649 12.4664 145.645 12.5647 145.645 12.6216C145.645 12.7348 145.635 12.8511 145.616 12.9734C145.597 13.0956 145.542 13.1563 145.447 13.1563C145.316 13.1563 145.251 13.0723 145.251 12.9035C145.251 12.7529 145.246 12.6074 145.237 12.4664C145.226 12.3255 145.195 12.1612 145.138 11.9731C145.081 11.7668 144.959 11.5651 144.772 11.3685C144.584 11.1706 144.218 11.0445 143.673 10.9876C143.485 10.9689 143.189 10.9501 142.786 10.9307C142.382 10.9126 141.968 10.8991 141.546 10.8894C141.124 10.8803 140.729 10.8706 140.363 10.8602C139.997 10.8525 139.757 10.8467 139.645 10.8467C139.513 10.8467 139.448 10.9126 139.448 11.0445V18.3395C139.466 18.8284 139.517 19.2235 139.603 19.5228C139.687 19.8235 139.846 20.0589 140.081 20.2276C140.315 20.3964 140.639 20.5096 141.053 20.5652C141.466 20.6221 142.02 20.6505 142.715 20.6505C143.091 20.6505 143.541 20.6363 144.067 20.6072C144.593 20.5794 145.043 20.4908 145.42 20.3401C145.795 20.1901 146.077 19.9599 146.265 19.6496C146.452 19.3398 146.593 18.8937 146.687 18.3117C146.744 18.0298 146.828 17.8888 146.94 17.8888C147.035 17.8888 147.086 17.9361 147.096 18.0298C147.105 18.1242 147.11 18.218 147.11 18.3117C147.11 18.3686 147.096 18.5141 147.068 18.7482C147.039 18.9836 147.006 19.2467 146.969 19.537C146.931 19.8287 146.894 20.1145 146.856 20.3964C146.818 20.6783 146.781 20.8936 146.744 21.0443C146.687 21.2324 146.631 21.3734 146.575 21.4665C146.518 21.5609 146.434 21.6307 146.321 21.6779C146.208 21.7245 146.067 21.7536 145.898 21.7627C145.729 21.7717 145.504 21.7769 145.222 21.7769C144.152 21.7769 143.226 21.7672 142.447 21.7484C141.668 21.7297 141.006 21.7103 140.461 21.6928C139.916 21.6547 139.466 21.6308 139.109 21.6217C138.752 21.6127 138.471 21.6075 138.264 21.6075H137.898C137.691 21.6075 137.437 21.6172 137.137 21.636C136.856 21.636 136.564 21.645 136.264 21.6637C135.964 21.6825 135.71 21.6928 135.504 21.6928C135.203 21.6928 135.053 21.6172 135.053 21.4665C135.053 21.354 135.128 21.2978 135.278 21.2978C135.41 21.2978 135.55 21.2887 135.7 21.2699C135.851 21.2512 135.992 21.2234 136.123 21.1853C136.405 21.129 136.597 20.9602 136.701 20.6783C136.804 20.3964 136.884 20.0492 136.94 19.636C137.015 19.0346 137.058 18.2044 137.067 17.1433C137.076 16.0822 137.081 14.8757 137.081 13.523Z" fill="#AA8453"/>
<path d="M156.63 13.5782C156.63 15.6441 156.668 17.1746 156.742 18.1698C156.818 19.1655 156.986 19.785 157.25 20.0294C157.362 20.1419 157.498 20.2408 157.658 20.3255C157.817 20.4096 158.024 20.4755 158.278 20.5227C158.531 20.5693 158.851 20.6062 159.236 20.6353C159.62 20.6631 160.085 20.6773 160.63 20.6773C161.381 20.6773 162.052 20.6398 162.644 20.5641C163.236 20.4898 163.7 20.2454 164.038 19.8315C164.226 19.6072 164.386 19.3343 164.518 19.0155C164.649 18.6961 164.733 18.4051 164.771 18.1419C164.808 17.8982 164.893 17.776 165.024 17.776C165.138 17.776 165.194 17.9169 165.194 18.1988C165.194 18.2732 165.184 18.4239 165.165 18.6495C165.147 18.8746 165.114 19.128 165.066 19.4099C165.02 19.6912 164.973 19.9777 164.925 20.2686C164.879 20.5596 164.828 20.8092 164.771 21.0155C164.715 21.1842 164.662 21.3155 164.616 21.4099C164.569 21.5043 164.489 21.5786 164.377 21.6349C164.264 21.6918 164.1 21.7293 163.883 21.7481C163.668 21.7662 163.372 21.7759 162.997 21.7759C161.982 21.7759 161.1 21.7662 160.348 21.7481C159.597 21.7293 158.921 21.7093 158.32 21.6918C157.719 21.6536 157.193 21.6304 156.742 21.6207C156.291 21.6116 155.859 21.6071 155.447 21.6071C155.39 21.6071 155.254 21.6116 155.038 21.6207C154.822 21.6304 154.573 21.6349 154.291 21.6349C154.01 21.6536 153.723 21.6672 153.433 21.6769C153.141 21.686 152.893 21.6918 152.687 21.6918C152.386 21.6918 152.236 21.6161 152.236 21.4661C152.236 21.353 152.31 21.2967 152.46 21.2967C152.592 21.2967 152.733 21.2877 152.883 21.2689C153.034 21.2502 153.175 21.2224 153.306 21.1842C153.588 21.128 153.78 20.9592 153.883 20.6773C153.986 20.3954 154.066 20.0481 154.123 19.635C154.197 19.0336 154.24 18.2034 154.249 17.1423C154.259 16.0812 154.264 14.8747 154.264 13.522V4.2257C154.264 3.79377 154.259 3.45107 154.249 3.1976C154.24 2.94413 154.225 2.70489 154.207 2.47922C154.169 1.99104 154.076 1.62506 153.925 1.38064C153.775 1.13687 153.464 0.968107 152.996 0.873702C152.883 0.835552 152.729 0.812269 152.531 0.803217C152.334 0.793517 152.169 0.788989 152.038 0.788989C151.887 0.788989 151.813 0.732739 151.813 0.619583C151.813 0.470217 151.963 0.394569 152.264 0.394569C152.582 0.394569 152.921 0.399744 153.278 0.408797C153.634 0.417849 153.967 0.427548 154.278 0.4366C154.588 0.446299 154.851 0.455356 155.066 0.465055C155.281 0.474754 155.409 0.478631 155.447 0.478631C155.484 0.478631 155.625 0.474754 155.87 0.465055C156.113 0.455356 156.395 0.446299 156.714 0.4366C157.034 0.427548 157.357 0.417849 157.687 0.408797C158.014 0.399744 158.282 0.394569 158.489 0.394569C158.79 0.394569 158.94 0.470217 158.94 0.619583C158.94 0.732739 158.864 0.788989 158.714 0.788989C158.62 0.788989 158.485 0.793517 158.306 0.803217C158.127 0.812269 157.954 0.835552 157.784 0.873702C157.371 0.948708 157.095 1.11294 156.954 1.36641C156.813 1.61988 156.723 1.99104 156.686 2.47922C156.668 2.70489 156.654 2.94413 156.644 3.1976C156.634 3.45107 156.63 3.79377 156.63 4.2257V13.5782Z" fill="#AA8453"/>
<path d="M53.2944 90.5406C56.0347 91.9928 56.0871 95.0409 53.8175 96.8198C50.3595 99.5277 44.9765 96.9814 44.7786 92.9951C44.4954 87.3373 52.3562 79.602 70.0473 85.9762C83.626 90.8665 99.1956 104.011 110.223 95.4276C118.472 89.0088 109.647 77.6699 102.171 80.9837C95.4369 83.9665 101.578 90.7216 105.901 87.8507C108.167 86.3467 107.732 85.1802 107.515 84.0428C108.319 84.467 108.778 86.9429 106.35 88.4288C105.416 89.0036 104.257 89.6043 102.561 89.3637C95.3238 88.3473 96.0402 79.2159 105.435 79.4132C113.382 79.5787 118.692 90.7746 110.127 96.759C93.9536 108.062 76.986 85.0949 58.6593 84.5278C44.9655 84.1049 43.2863 96.7661 50.4907 96.9342C51.6326 96.9536 52.5767 96.6122 53.2679 96.0839H53.2692C56.4466 93.288 53.8505 91.2214 53.2944 90.5406Z" fill="#AA8453"/>
<path d="M175.707 90.5406C172.967 91.9928 172.915 95.0409 175.185 96.8198C178.643 99.5277 184.025 96.9814 184.224 92.9951C184.507 87.3373 176.646 79.602 158.955 85.9762C145.376 90.8665 129.806 104.011 118.779 95.4276C110.529 89.0088 119.355 77.6699 126.831 80.9837C133.565 83.9665 127.424 90.7216 123.101 87.8507C120.835 86.3467 121.27 85.1802 121.487 84.0428C120.683 84.467 120.224 86.9429 122.652 88.4288C123.586 89.0036 124.745 89.6043 126.442 89.3637C133.678 88.3473 132.962 79.2159 123.567 79.4132C115.621 79.5787 110.31 90.7746 118.875 96.759C135.048 108.062 152.015 85.0949 170.343 84.5278C184.036 84.1049 185.716 96.7661 178.511 96.9342C177.369 96.9536 176.425 96.6122 175.735 96.0839H175.733C172.555 93.288 175.152 91.2214 175.707 90.5406Z" fill="#AA8453"/>
<path d="M120.05 90.1838C121.834 89.2378 121.868 87.2534 120.391 86.0934C118.138 84.3308 114.632 85.9887 114.503 88.5854C114.318 92.2691 119.439 97.3088 130.962 93.1569C139.806 89.9711 149.948 81.4101 157.131 87C162.503 91.1809 156.756 98.5671 151.886 96.4081C147.5 94.465 151.499 90.0668 154.315 91.9355C155.791 92.9151 155.508 93.6755 155.366 94.4165C155.891 94.1404 156.189 92.5278 154.608 91.5585C153.999 91.1861 153.245 90.7936 152.14 90.9494C147.425 91.6122 147.893 97.5597 154.012 97.431C159.188 97.3243 162.647 90.0312 157.067 86.1341C146.534 78.7712 135.481 93.7311 123.544 94.101C114.625 94.3745 113.53 86.129 118.223 86.0191C118.967 86.0068 119.582 86.2279 120.032 86.5732C122.102 88.3947 120.413 89.7409 120.05 90.1838Z" fill="#AA8453"/>
<path d="M108.952 90.1838C107.168 89.2378 107.133 87.2534 108.612 86.0934C110.864 84.3308 114.37 85.9887 114.5 88.5854C114.683 92.2691 109.563 97.3088 98.0409 93.1569C89.196 89.9711 79.0546 81.4101 71.8715 87C66.4982 91.1809 72.2465 98.5671 77.1161 96.4081C81.5027 94.465 77.5028 90.0668 74.6862 91.9355C73.2106 92.9151 73.4944 93.6755 73.6361 94.4165C73.1117 94.1404 72.8129 92.5278 74.3945 91.5585C75.003 91.1861 75.7576 90.7936 76.8626 90.9494C81.5764 91.6122 81.1095 97.5597 74.99 97.431C69.8146 97.3243 66.3553 90.0312 71.9348 86.1341C82.4687 78.7712 93.5211 93.7311 105.458 94.101C114.377 94.3745 115.471 86.129 110.779 86.0191C110.035 86.0068 109.42 86.2279 108.97 86.5732H108.969C106.899 88.3947 108.59 89.7409 108.952 90.1838Z" fill="#AA8453"/>
</g>
<defs>
<clipPath id="clip0_315_5107">
<rect width="229.017" height="100" fill="white"/>
</clipPath>
</defs>
</svg>
