<?xml version="1.0" encoding="UTF-8" standalone="no"?>
<!DOCTYPE svg PUBLIC "-//W3C//DTD SVG 1.1//EN" "http://www.w3.org/Graphics/SVG/1.1/DTD/svg11.dtd">
<svg width="100%" height="100%" viewBox="0 0 1468 641" version="1.1" xmlns="http://www.w3.org/2000/svg" xmlns:xlink="http://www.w3.org/1999/xlink" xml:space="preserve" xmlns:serif="http://www.serif.com/" style="fill-rule:evenodd;clip-rule:evenodd;stroke-linejoin:round;stroke-miterlimit:2;">
    <g transform="matrix(4.14474,0,0,4.14474,-1752.89,-1525.41)">
        <path d="M463.149,451.138C463.504,451.138 463.622,450.93 463.504,450.516L455.067,426.537C454.593,425.237 454.149,425.237 453.735,426.537L445.92,450.516C445.743,450.93 445.832,451.138 446.187,451.138L463.149,451.138ZM453.913,415.614C454.446,414.135 454.83,413.188 455.067,412.772C455.303,412.359 455.57,412.15 455.867,412.15C456.162,412.15 456.428,412.343 456.666,412.727C456.902,413.114 457.288,413.986 457.82,415.347C458.056,415.881 458.604,417.273 459.464,419.521C460.321,421.773 461.357,424.511 462.572,427.737C463.785,430.964 465.132,434.501 466.612,438.349C468.092,442.198 469.557,446.001 471.008,449.761C472.458,453.521 473.85,457.087 475.182,460.462C476.515,463.837 477.624,466.649 478.513,468.899C479.281,470.853 480.036,472.451 480.777,473.695C481.517,474.938 482.198,475.915 482.82,476.625C483.442,477.335 484.033,477.839 484.596,478.135C485.158,478.432 485.676,478.638 486.15,478.757C486.801,478.993 487.438,479.142 488.059,479.201C488.681,479.26 489.228,479.289 489.703,479.289C490.294,479.289 490.59,479.467 490.59,479.822C490.59,480.119 490.413,480.311 490.058,480.399C489.703,480.489 489.288,480.533 488.814,480.533L483.574,480.533C482.331,480.533 480.955,480.518 479.445,480.489C477.935,480.458 476.411,480.414 474.871,480.356C474.041,480.295 473.391,480.252 472.918,480.222C472.443,480.193 472.207,480.031 472.207,479.734C472.207,479.438 472.414,479.232 472.829,479.112C473.124,478.993 473.362,478.742 473.539,478.357C473.717,477.973 473.658,477.425 473.362,476.715L465.102,454.867C464.925,454.512 464.659,454.335 464.304,454.335L445.21,454.335C444.795,454.335 444.5,454.572 444.321,455.045L438.993,470.764C438.164,473.073 437.75,475.058 437.75,476.715C437.75,477.602 438.119,478.254 438.86,478.667C439.6,479.083 440.354,479.289 441.124,479.289L442.013,479.289C442.604,479.289 442.9,479.467 442.9,479.822C442.9,480.295 442.457,480.533 441.569,480.533C441.036,480.533 440.414,480.518 439.704,480.489C438.993,480.458 438.312,480.428 437.661,480.399C437.009,480.369 436.403,480.34 435.841,480.311C435.277,480.281 434.878,480.266 434.642,480.266C434.404,480.266 433.945,480.281 433.265,480.311C432.584,480.34 431.769,480.369 430.823,480.399C429.875,480.428 428.869,480.458 427.804,480.489C426.738,480.518 425.672,480.533 424.606,480.533C423.482,480.533 422.919,480.295 422.919,479.822C422.919,479.467 423.185,479.289 423.718,479.289C424.015,479.289 424.428,479.276 424.962,479.245C425.494,479.216 425.938,479.171 426.294,479.112C428.366,478.816 429.919,477.912 430.956,476.403C431.991,474.893 432.924,473.015 433.754,470.764L453.913,415.614Z" style="fill-rule:nonzero;"/>
    </g>
    <g transform="matrix(4.14474,0,0,4.14474,-1752.89,-1520.26)">
        <path d="M504.266,480C502.253,479.645 500.328,479.023 498.494,478.135C497.841,477.839 497.457,477.499 497.339,477.113C497.22,476.73 497.161,475.946 497.161,474.759C497.161,472.511 497.22,470.557 497.339,468.898C497.457,467.241 497.546,466.056 497.606,465.346C497.664,464.4 497.901,463.926 498.316,463.926C498.73,463.926 498.938,464.252 498.938,464.902C498.938,465.317 498.952,465.805 498.982,466.368C499.011,466.931 499.085,467.537 499.204,468.188C499.559,469.846 500.15,471.252 500.98,472.407C501.809,473.561 502.83,474.494 504.044,475.204C505.257,475.914 506.575,476.434 507.996,476.758C509.417,477.085 510.867,477.246 512.348,477.246C514.479,477.246 516.344,476.891 517.943,476.181C519.541,475.471 520.858,474.569 521.894,473.472C522.93,472.378 523.715,471.119 524.248,469.698C524.781,468.278 525.047,466.856 525.047,465.436C525.047,463.896 524.87,462.491 524.515,461.217C524.159,459.944 523.581,458.701 522.783,457.488C521.983,456.274 520.932,455.031 519.63,453.757C518.327,452.485 516.728,451.049 514.834,449.45L510.838,446.164C508.47,444.211 506.545,442.405 505.066,440.747C503.585,439.09 502.415,437.476 501.558,435.906C500.699,434.339 500.106,432.829 499.782,431.377C499.456,429.928 499.293,428.433 499.293,426.893C499.293,424.526 499.722,422.364 500.581,420.41C501.438,418.457 502.668,416.768 504.266,415.348C505.864,413.926 507.788,412.832 510.038,412.062C512.288,411.293 514.834,410.906 517.676,410.906C519.392,410.906 520.918,410.981 522.25,411.129C523.581,411.277 524.81,411.499 525.935,411.795C526.764,411.974 527.4,412.092 527.845,412.151C528.289,412.21 528.689,412.239 529.044,412.239C529.635,412.239 529.932,412.448 529.932,412.861C529.932,413.098 529.872,413.971 529.754,415.481C529.635,416.99 529.576,419.255 529.576,422.274C529.576,423.637 529.368,424.318 528.955,424.318C528.658,424.318 528.48,424.214 528.422,424.006C528.362,423.8 528.302,423.518 528.244,423.163C528.185,422.629 528.051,421.874 527.845,420.899C527.636,419.922 527.385,419.197 527.089,418.722C526.97,418.487 526.704,418.1 526.291,417.568C525.876,417.035 525.238,416.503 524.381,415.97C523.522,415.436 522.412,414.978 521.051,414.593C519.688,414.209 518.001,414.016 515.989,414.016C512.91,414.016 510.319,414.919 508.218,416.725C506.116,418.53 505.066,421.062 505.066,424.318C505.066,425.561 505.228,426.731 505.554,427.825C505.879,428.922 506.456,430.032 507.285,431.156C508.114,432.281 509.224,433.494 510.616,434.796C512.006,436.1 513.769,437.58 515.9,439.237L518.386,441.191C520.992,443.264 523.138,445.186 524.825,446.963C526.513,448.74 527.845,450.441 528.821,452.07C529.798,453.699 530.465,455.327 530.82,456.954C531.175,458.583 531.353,460.285 531.353,462.06C531.353,462.949 531.248,464.014 531.042,465.258C530.833,466.501 530.449,467.804 529.887,469.165C529.324,470.528 528.555,471.874 527.578,473.206C526.602,474.539 525.343,475.737 523.804,476.803C521.909,478.166 519.807,479.125 517.499,479.688C515.19,480.251 512.821,480.533 510.394,480.533C508.321,480.533 506.278,480.355 504.266,480" style="fill-rule:nonzero;"/>
    </g>
    <g transform="matrix(4.14474,0,0,4.14474,-1752.89,-1520.25)">
        <path d="M608.438,453.533C608.438,457.796 608.45,461.601 608.481,464.945C608.51,468.291 608.643,470.91 608.88,472.805C608.998,474.109 609.266,475.202 609.679,476.09C610.095,476.979 610.981,477.512 612.344,477.689C612.996,477.809 613.72,477.897 614.52,477.956C615.32,478.015 615.926,478.044 616.341,478.044C616.815,478.044 617.052,478.222 617.052,478.577C617.052,479.05 616.575,479.288 615.631,479.288C614.387,479.288 613.143,479.273 611.899,479.244C610.658,479.213 609.518,479.183 608.481,479.154C607.445,479.124 606.585,479.095 605.907,479.066C605.225,479.036 604.824,479.021 604.706,479.021C604.587,479.021 604.189,479.036 603.508,479.066C602.826,479.095 602.041,479.124 601.155,479.154C600.266,479.183 599.348,479.213 598.401,479.244C597.455,479.273 596.655,479.288 596.003,479.288C595.056,479.288 594.582,479.05 594.582,478.577C594.582,478.222 594.819,478.044 595.293,478.044C595.705,478.044 596.15,478.015 596.626,477.956C597.1,477.897 597.541,477.809 597.957,477.689C598.846,477.512 599.452,476.979 599.778,476.09C600.102,475.202 600.356,474.109 600.532,472.805C600.768,470.91 600.901,468.291 600.933,464.945C600.962,461.601 600.976,457.796 600.976,453.533L600.976,444.209C600.976,443.854 600.8,443.675 600.445,443.675L562.79,443.675C562.435,443.675 562.257,443.854 562.257,444.209L562.257,453.533C562.257,457.796 562.271,461.601 562.301,464.945C562.33,468.291 562.464,470.91 562.701,472.805C562.819,474.109 563.085,475.202 563.5,476.09C563.913,476.979 564.802,477.512 566.164,477.689C566.815,477.809 567.541,477.897 568.34,477.956C569.139,478.015 569.746,478.044 570.161,478.044C570.634,478.044 570.871,478.222 570.871,478.577C570.871,479.05 570.397,479.288 569.451,479.288C568.207,479.288 566.964,479.273 565.72,479.244C564.477,479.213 563.337,479.183 562.301,479.154C561.265,479.124 560.405,479.095 559.726,479.066C559.044,479.036 558.645,479.021 558.527,479.021C558.408,479.021 558.008,479.036 557.328,479.066C556.646,479.095 555.863,479.124 554.974,479.154C554.087,479.183 553.168,479.213 552.221,479.244C551.274,479.273 550.475,479.288 549.824,479.288C548.876,479.288 548.403,479.05 548.403,478.577C548.403,478.222 548.639,478.044 549.113,478.044C549.527,478.044 549.971,478.015 550.445,477.956C550.919,477.897 551.362,477.809 551.777,477.689C552.666,477.512 553.272,476.979 553.598,476.09C553.923,475.202 554.175,474.109 554.353,472.805C554.589,470.91 554.722,468.291 554.753,464.945C554.782,461.601 554.797,457.796 554.797,453.533L554.797,424.227C554.797,422.866 554.782,421.785 554.753,420.985C554.722,420.186 554.678,419.431 554.619,418.721C554.5,417.182 554.204,416.028 553.731,415.257C553.257,414.489 552.28,413.957 550.8,413.659C550.445,413.541 549.957,413.467 549.335,413.437C548.713,413.408 548.194,413.392 547.781,413.392C547.307,413.392 547.071,413.215 547.071,412.86C547.071,412.386 547.544,412.15 548.492,412.15C549.498,412.15 550.564,412.164 551.689,412.194C552.813,412.225 553.864,412.254 554.842,412.282C555.818,412.313 556.646,412.342 557.328,412.372C558.008,412.402 558.408,412.415 558.527,412.415C558.645,412.415 559.044,412.402 559.726,412.372C560.405,412.342 561.191,412.313 562.079,412.282C562.967,412.254 563.884,412.225 564.832,412.194C565.779,412.164 566.578,412.15 567.23,412.15C568.176,412.15 568.651,412.386 568.651,412.86C568.651,413.215 568.413,413.392 567.941,413.392C567.644,413.392 567.332,413.408 567.008,413.437C566.682,413.467 566.253,413.541 565.72,413.659C564.535,413.896 563.722,414.414 563.278,415.214C562.834,416.012 562.552,417.182 562.435,418.721C562.375,419.431 562.33,420.186 562.301,420.985C562.271,421.785 562.257,422.866 562.257,424.227L562.257,439.768C562.257,440.123 562.435,440.301 562.79,440.301L600.445,440.301C600.8,440.301 600.976,440.123 600.976,439.768L600.976,424.227C600.976,422.866 600.962,421.785 600.933,420.985C600.901,420.186 600.858,419.431 600.8,418.721C600.679,417.182 600.384,416.028 599.911,415.257C599.438,414.489 598.459,413.957 596.981,413.659C596.626,413.541 596.138,413.467 595.515,413.437C594.894,413.408 594.375,413.392 593.962,413.392C593.486,413.392 593.252,413.215 593.252,412.86C593.252,412.386 593.725,412.15 594.672,412.15C595.676,412.15 596.745,412.164 597.867,412.194C598.993,412.225 600.044,412.254 601.022,412.282C601.998,412.313 602.826,412.342 603.508,412.372C604.189,412.402 604.587,412.415 604.706,412.415C604.824,412.415 605.225,412.402 605.907,412.372C606.585,412.342 607.37,412.313 608.259,412.282C609.148,412.254 610.063,412.225 611.013,412.194C611.96,412.164 612.759,412.15 613.409,412.15C614.355,412.15 614.832,412.386 614.832,412.86C614.832,413.215 614.595,413.392 614.122,413.392C613.824,413.392 613.513,413.408 613.189,413.437C612.863,413.467 612.433,413.541 611.899,413.659C610.716,413.896 609.902,414.414 609.457,415.214C609.015,416.012 608.732,417.182 608.614,418.721C608.553,419.431 608.51,420.186 608.481,420.985C608.45,421.785 608.438,422.866 608.438,424.227L608.438,453.533Z" style="fill-rule:nonzero;"/>
    </g>
    <g transform="matrix(4.14474,0,0,4.14474,-1752.89,-1520.26)">
        <path d="M638.32,457.176C639.771,461.38 641.784,464.963 644.359,467.923C646.935,470.883 649.938,473.162 653.373,474.76C656.806,476.359 660.536,477.158 664.563,477.158C666.575,477.158 668.973,476.789 671.757,476.048C674.538,475.308 677.218,473.843 679.793,471.652C682.369,469.463 684.559,466.368 686.366,462.372C688.17,458.375 689.073,453.151 689.073,446.698C689.073,441.369 688.318,436.661 686.809,432.577C685.299,428.492 683.302,425.073 680.815,422.319C678.328,419.567 675.456,417.48 672.2,416.058C668.944,414.638 665.569,413.926 662.077,413.926C658.346,413.926 654.896,414.534 651.73,415.748C648.562,416.962 645.824,418.798 643.516,421.254C641.207,423.711 639.4,426.76 638.098,430.4C636.794,434.042 636.145,438.291 636.145,443.144C636.145,448.295 636.868,452.973 638.32,457.176M628.595,438.083C629.187,435.418 630.105,432.799 631.349,430.223C632.592,427.648 634.146,425.191 636.011,422.852C637.875,420.514 640.11,418.457 642.716,416.68C645.32,414.904 648.28,413.498 651.597,412.462C654.912,411.426 658.613,410.906 662.697,410.906C667.671,410.906 672.289,411.677 676.551,413.216C680.815,414.756 684.499,416.962 687.608,419.832C690.717,422.705 693.159,426.197 694.934,430.312C696.711,434.428 697.599,439.06 697.599,444.211C697.599,449.183 696.756,453.877 695.069,458.286C693.381,462.698 690.997,466.546 687.919,469.831C684.84,473.117 681.111,475.724 676.729,477.646C672.347,479.57 667.493,480.533 662.165,480.533C656.067,480.533 650.842,479.468 646.49,477.336C642.139,475.204 638.571,472.452 635.788,469.076C633.006,465.702 630.964,461.958 629.662,457.843C628.358,453.728 627.708,449.658 627.708,445.631C627.708,443.264 628.003,440.747 628.595,438.083" style="fill-rule:nonzero;"/>
    </g>
    <g transform="matrix(4.14474,0,0,4.14474,-1752.89,-1520.25)">
        <path d="M719.09,453.532L719.09,424.226C719.09,422.865 719.074,421.784 719.045,420.985C719.015,420.185 718.97,419.43 718.912,418.72C718.793,417.182 718.497,416.027 718.023,415.256C717.549,414.489 716.573,413.956 715.094,413.659C714.738,413.54 714.249,413.467 713.627,413.436C713.007,413.408 712.487,413.392 712.074,413.392C711.599,413.392 711.363,413.214 711.363,412.859C711.363,412.386 711.836,412.149 712.784,412.149C713.79,412.149 714.841,412.163 715.936,412.194C717.032,412.224 718.038,412.253 718.956,412.282C719.874,412.312 720.673,412.341 721.355,412.371C722.034,412.402 722.434,412.415 722.552,412.415C722.73,412.415 723.159,412.402 723.841,412.371C724.521,412.341 725.29,412.312 726.149,412.282C727.008,412.253 727.895,412.224 728.813,412.194C729.731,412.163 730.515,412.149 731.167,412.149C732.114,412.149 732.588,412.386 732.588,412.859C732.588,413.214 732.351,413.392 731.878,413.392C731.58,413.392 731.27,413.408 730.945,413.436C730.619,413.467 730.19,413.54 729.658,413.659C728.473,413.895 727.659,414.413 727.216,415.213C726.771,416.011 726.49,417.182 726.371,418.72C726.312,419.43 726.267,420.185 726.239,420.985C726.208,421.784 726.194,422.865 726.194,424.226L726.194,443.232L726.549,443.232C726.786,442.936 727.393,442.285 728.37,441.277C729.347,440.271 730.515,439.072 731.878,437.681C733.238,436.291 734.719,434.781 736.319,433.152C737.916,431.524 739.44,429.969 740.892,428.49C742.341,427.011 743.645,425.662 744.799,424.449C745.954,423.236 746.797,422.333 747.331,421.74C748.573,420.438 749.683,419.24 750.66,418.143C751.638,417.049 752.125,416.115 752.125,415.346C752.125,414.399 751.74,413.777 750.971,413.481C750.438,413.244 750.173,413.008 750.173,412.77C750.173,412.357 750.528,412.149 751.238,412.149C752.125,412.149 753.192,412.194 754.435,412.282C755.679,412.371 756.833,412.415 757.899,412.415C758.017,412.415 758.415,412.402 759.098,412.371C759.778,412.341 760.576,412.312 761.495,412.282C762.412,412.253 763.33,412.224 764.248,412.194C765.166,412.163 765.891,412.149 766.424,412.149C767.312,412.149 767.756,412.357 767.756,412.77C767.756,413.185 767.459,413.392 766.869,413.392C765.388,413.392 763.729,413.807 761.895,414.636C761.006,415.05 760.192,415.495 759.453,415.968C758.711,416.441 757.972,416.988 757.232,417.61C756.491,418.232 755.736,418.928 754.967,419.697C754.198,420.468 753.309,421.327 752.303,422.272C751.948,422.627 751.252,423.31 750.216,424.316C749.18,425.323 747.996,426.476 746.664,427.778C745.332,429.082 743.912,430.473 742.402,431.952C740.892,433.433 739.471,434.839 738.138,436.171C736.806,437.503 735.652,438.672 734.675,439.68C733.699,440.687 733.061,441.367 732.765,441.722C733.122,442.136 733.905,442.965 735.119,444.209C736.332,445.451 737.739,446.916 739.338,448.604C740.936,450.292 742.653,452.083 744.489,453.977C746.323,455.872 748.086,457.663 749.773,459.35C751.46,461.037 752.97,462.562 754.302,463.924C755.634,465.286 756.595,466.232 757.188,466.766C759.023,468.483 760.547,469.904 761.762,471.028C762.975,472.154 764.056,473.07 765.002,473.782C765.949,474.492 766.824,475.084 767.623,475.557C768.422,476.032 769.354,476.476 770.421,476.889C771.604,477.364 772.743,477.674 773.84,477.821C774.934,477.97 775.629,478.044 775.927,478.044C776.694,478.044 777.081,478.221 777.081,478.576C777.081,478.814 776.947,478.992 776.681,479.11C776.414,479.227 775.896,479.288 775.127,479.288L767.312,479.288C766.424,479.288 765.476,479.227 764.47,479.11C763.285,478.992 762.234,478.786 761.318,478.488C760.398,478.192 759.541,477.821 758.741,477.378C757.943,476.934 757.144,476.401 756.344,475.779C755.545,475.157 754.671,474.463 753.725,473.692C753.072,473.16 752.037,472.198 750.616,470.806C749.196,469.416 747.611,467.786 745.864,465.922C744.118,464.057 742.268,462.074 740.315,459.971C738.361,457.871 736.48,455.842 734.675,453.889C732.869,451.935 731.255,450.158 729.835,448.56C728.414,446.961 727.348,445.718 726.638,444.829L726.194,444.829L726.194,453.532C726.194,457.796 726.208,461.6 726.239,464.944C726.267,468.29 726.4,470.91 726.638,472.805C726.757,474.108 727.022,475.202 727.438,476.089C727.851,476.979 728.738,477.511 730.102,477.689C730.752,477.808 731.39,477.896 732.01,477.956C732.632,478.015 733.15,478.044 733.565,478.044C734.038,478.044 734.276,478.221 734.276,478.576C734.276,479.05 733.801,479.288 732.855,479.288C731.789,479.288 730.678,479.272 729.525,479.243C728.37,479.213 727.318,479.182 726.371,479.154C725.425,479.123 724.609,479.094 723.929,479.066C723.248,479.035 722.819,479.021 722.642,479.021C722.464,479.021 722.049,479.035 721.398,479.066C720.747,479.094 719.992,479.123 719.133,479.154C718.275,479.182 717.387,479.213 716.469,479.243C715.551,479.272 714.767,479.288 714.116,479.288C713.168,479.288 712.695,479.05 712.695,478.576C712.695,478.221 712.931,478.044 713.406,478.044C713.819,478.044 714.264,478.015 714.738,477.956C715.21,477.896 715.655,477.808 716.071,477.689C716.958,477.511 717.564,476.979 717.891,476.089C718.215,475.202 718.468,474.108 718.645,472.805C718.881,470.91 719.015,468.29 719.045,464.944C719.074,461.6 719.09,457.796 719.09,453.532Z" style="fill-rule:nonzero;"/>
    </g>
    <g transform="matrix(4.14474,0,0,4.14474,-1752.89,-2033.99)">
        <path d="M551.707,511.653C551.707,513.744 551.714,515.61 551.729,517.252C551.743,518.893 551.808,520.177 551.925,521.107C551.983,521.746 552.114,522.283 552.317,522.719C552.52,523.155 552.955,523.416 553.624,523.502C553.944,523.562 554.299,523.605 554.692,523.634C555.084,523.663 555.382,523.677 555.585,523.677C555.817,523.677 555.933,523.764 555.933,523.938C555.933,524.171 555.701,524.288 555.236,524.288C554.627,524.288 554.016,524.279 553.406,524.264C552.797,524.25 552.237,524.236 551.729,524.221C551.221,524.207 550.799,524.192 550.466,524.178C550.131,524.163 549.936,524.156 549.877,524.156C549.819,524.156 549.623,524.163 549.289,524.178C548.955,524.192 548.571,524.207 548.135,524.221C547.699,524.236 547.249,524.25 546.784,524.264C546.319,524.279 545.927,524.288 545.608,524.288C545.143,524.288 544.911,524.171 544.911,523.938C544.911,523.764 545.026,523.677 545.26,523.677C545.462,523.677 545.68,523.663 545.914,523.634C546.145,523.605 546.363,523.562 546.566,523.502C547.002,523.416 547.299,523.155 547.459,522.719C547.618,522.283 547.742,521.746 547.83,521.107C547.946,520.177 548.011,518.893 548.027,517.252C548.04,515.61 548.048,513.744 548.048,511.653L548.048,507.078C548.048,506.904 547.96,506.817 547.786,506.817L529.314,506.817C529.14,506.817 529.053,506.904 529.053,507.078L529.053,511.653C529.053,513.744 529.059,515.61 529.075,517.252C529.089,518.893 529.154,520.177 529.271,521.107C529.329,521.746 529.459,522.283 529.662,522.719C529.866,523.155 530.302,523.416 530.97,523.502C531.289,523.562 531.645,523.605 532.036,523.634C532.429,523.663 532.726,523.677 532.93,523.677C533.162,523.677 533.279,523.764 533.279,523.938C533.279,524.171 533.045,524.288 532.582,524.288C531.971,524.288 531.361,524.279 530.752,524.264C530.141,524.25 529.583,524.236 529.075,524.221C528.565,524.207 528.144,524.192 527.81,524.178C527.477,524.163 527.281,524.156 527.223,524.156C527.164,524.156 526.968,524.163 526.634,524.178C526.301,524.192 525.915,524.207 525.48,524.221C525.045,524.236 524.593,524.25 524.13,524.264C523.665,524.279 523.273,524.288 522.954,524.288C522.489,524.288 522.257,524.171 522.257,523.938C522.257,523.764 522.372,523.677 522.605,523.677C522.808,523.677 523.026,523.663 523.258,523.634C523.491,523.605 523.709,523.562 523.912,523.502C524.348,523.416 524.645,523.155 524.806,522.719C524.964,522.283 525.088,521.746 525.175,521.107C525.29,520.177 525.357,518.893 525.371,517.252C525.386,515.61 525.393,513.744 525.393,511.653L525.393,497.276C525.393,496.607 525.386,496.078 525.371,495.685C525.357,495.293 525.334,494.923 525.306,494.575C525.247,493.82 525.103,493.253 524.871,492.875C524.638,492.498 524.158,492.237 523.433,492.091C523.258,492.033 523.019,491.997 522.714,491.982C522.408,491.968 522.154,491.961 521.951,491.961C521.718,491.961 521.603,491.873 521.603,491.699C521.603,491.467 521.835,491.35 522.3,491.35C522.794,491.35 523.316,491.358 523.869,491.373C524.42,491.387 524.935,491.402 525.415,491.416C525.894,491.431 526.301,491.445 526.634,491.459C526.968,491.474 527.164,491.481 527.223,491.481C527.281,491.481 527.477,491.474 527.81,491.459C528.144,491.445 528.529,491.431 528.965,491.416C529.401,491.402 529.851,491.387 530.316,491.373C530.781,491.358 531.172,491.35 531.492,491.35C531.957,491.35 532.189,491.467 532.189,491.699C532.189,491.873 532.072,491.961 531.842,491.961C531.696,491.961 531.543,491.968 531.384,491.982C531.224,491.997 531.013,492.033 530.752,492.091C530.17,492.208 529.772,492.462 529.554,492.853C529.336,493.245 529.197,493.82 529.14,494.575C529.111,494.923 529.089,495.293 529.075,495.685C529.059,496.078 529.053,496.607 529.053,497.276L529.053,504.9C529.053,505.074 529.14,505.161 529.314,505.161L547.786,505.161C547.96,505.161 548.048,505.074 548.048,504.9L548.048,497.276C548.048,496.607 548.04,496.078 548.027,495.685C548.011,495.293 547.989,494.923 547.96,494.575C547.902,493.82 547.757,493.253 547.524,492.875C547.292,492.498 546.813,492.237 546.087,492.091C545.914,492.033 545.673,491.997 545.368,491.982C545.064,491.968 544.808,491.961 544.606,491.961C544.374,491.961 544.257,491.873 544.257,491.699C544.257,491.467 544.489,491.35 544.954,491.35C545.447,491.35 545.971,491.358 546.523,491.373C547.074,491.387 547.591,491.402 548.07,491.416C548.549,491.431 548.955,491.445 549.289,491.459C549.623,491.474 549.819,491.481 549.877,491.481C549.936,491.481 550.131,491.474 550.466,491.459C550.799,491.445 551.185,491.431 551.62,491.416C552.056,491.402 552.505,491.387 552.971,491.373C553.435,491.358 553.827,491.35 554.148,491.35C554.611,491.35 554.845,491.467 554.845,491.699C554.845,491.873 554.728,491.961 554.495,491.961C554.35,491.961 554.198,491.968 554.038,491.982C553.878,491.997 553.668,492.033 553.406,492.091C552.826,492.208 552.426,492.462 552.208,492.853C551.99,493.245 551.853,493.82 551.795,494.575C551.765,494.923 551.743,495.293 551.729,495.685C551.714,496.078 551.707,496.607 551.707,497.276L551.707,511.653Z" style="fill-rule:nonzero;"/>
    </g>
    <g transform="matrix(4.14474,0,0,4.14474,-1752.89,-2034)">
        <path d="M566.368,513.44C567.08,515.502 568.067,517.26 569.331,518.712C570.594,520.164 572.068,521.283 573.753,522.067C575.436,522.85 577.266,523.243 579.242,523.243C580.229,523.243 581.406,523.062 582.771,522.699C584.136,522.335 585.45,521.616 586.714,520.542C587.977,519.467 589.051,517.95 589.938,515.989C590.823,514.029 591.266,511.466 591.266,508.299C591.266,505.686 590.897,503.377 590.155,501.373C589.414,499.369 588.434,497.691 587.215,496.341C585.995,494.99 584.585,493.966 582.989,493.269C581.391,492.572 579.736,492.224 578.023,492.224C576.192,492.224 574.499,492.522 572.946,493.116C571.392,493.712 570.05,494.613 568.917,495.817C567.784,497.023 566.898,498.519 566.26,500.305C565.62,502.091 565.301,504.176 565.301,506.557C565.301,509.084 565.656,511.379 566.368,513.44M561.598,504.074C561.888,502.767 562.338,501.482 562.947,500.218C563.558,498.954 564.32,497.75 565.235,496.602C566.15,495.455 567.247,494.446 568.524,493.574C569.803,492.703 571.255,492.013 572.882,491.505C574.508,490.997 576.324,490.742 578.327,490.742C580.766,490.742 583.032,491.12 585.123,491.875C587.215,492.631 589.023,493.712 590.547,495.12C592.073,496.53 593.271,498.243 594.141,500.261C595.013,502.281 595.449,504.553 595.449,507.079C595.449,509.52 595.035,511.822 594.208,513.986C593.379,516.149 592.21,518.037 590.7,519.649C589.189,521.261 587.359,522.538 585.21,523.482C583.061,524.426 580.68,524.898 578.066,524.898C575.074,524.898 572.511,524.376 570.376,523.329C568.241,522.284 566.491,520.934 565.127,519.278C563.761,517.623 562.758,515.787 562.12,513.768C561.481,511.748 561.162,509.752 561.162,507.777C561.162,506.615 561.306,505.381 561.598,504.074" style="fill-rule:nonzero;"/>
    </g>
    <g transform="matrix(4.14474,0,0,4.14474,-1752.89,-2036.52)">
        <path d="M614.094,512.263C614.094,514.354 614.1,516.22 614.116,517.862C614.13,519.503 614.195,520.787 614.312,521.717C614.37,522.356 614.5,522.893 614.703,523.329C614.907,523.765 615.342,524.026 616.011,524.112C616.33,524.172 616.686,524.215 617.077,524.244C617.47,524.273 617.767,524.287 617.971,524.287C618.203,524.287 618.32,524.374 618.32,524.548C618.32,524.781 618.086,524.898 617.623,524.898C617.012,524.898 616.402,524.889 615.793,524.874C615.182,524.86 614.624,524.846 614.116,524.831C613.606,524.817 613.185,524.802 612.851,524.788C612.518,524.773 612.322,524.766 612.264,524.766C612.205,524.766 612.008,524.773 611.675,524.788C611.342,524.802 610.956,524.817 610.52,524.831C610.086,524.846 609.634,524.86 609.171,524.874C608.705,524.889 608.314,524.898 607.995,524.898C607.529,524.898 607.298,524.781 607.298,524.548C607.298,524.374 607.413,524.287 607.645,524.287C607.849,524.287 608.067,524.273 608.299,524.244C608.532,524.215 608.75,524.172 608.953,524.112C609.389,524.026 609.686,523.765 609.846,523.329C610.005,522.893 610.129,522.356 610.216,521.717C610.331,520.787 610.398,519.503 610.412,517.862C610.427,516.22 610.434,514.354 610.434,512.263L610.434,493.834L603.987,493.921C603.317,493.921 602.744,493.951 602.265,494.008C601.786,494.067 601.371,494.146 601.024,494.248C600.674,494.35 600.384,494.487 600.152,494.661C599.92,494.836 599.716,495.054 599.543,495.315C599.309,495.693 599.143,495.976 599.041,496.165C598.939,496.354 598.86,496.521 598.801,496.665C598.685,496.956 598.54,497.101 598.367,497.101C598.221,497.101 598.149,496.971 598.149,496.709C598.149,496.593 598.192,496.31 598.278,495.86C598.367,495.41 598.468,494.923 598.583,494.4C598.7,493.878 598.808,493.399 598.911,492.963C599.012,492.527 599.077,492.266 599.107,492.178C599.165,492.033 599.23,491.859 599.303,491.656C599.375,491.453 599.455,491.35 599.543,491.35C599.687,491.35 599.898,491.423 600.173,491.568C600.449,491.714 600.878,491.815 601.459,491.874C602.097,491.932 602.766,491.983 603.463,492.026C604.16,492.069 604.639,492.091 604.9,492.091L621.238,492.091C621.935,492.091 622.537,492.069 623.047,492.026C623.555,491.983 623.983,491.932 624.331,491.874C624.65,491.815 624.913,491.765 625.116,491.721C625.318,491.677 625.464,491.656 625.551,491.656C625.668,491.656 625.733,491.706 625.747,491.808C625.762,491.91 625.769,492.033 625.769,492.178C625.769,492.499 625.762,492.905 625.747,493.399C625.733,493.892 625.718,494.386 625.704,494.879C625.689,495.374 625.675,495.816 625.661,496.209C625.646,496.6 625.639,496.855 625.639,496.971C625.639,497.349 625.536,497.537 625.334,497.537C625.217,497.537 625.138,497.494 625.093,497.407C625.05,497.319 625.014,497.116 624.985,496.797L624.942,496.317C624.913,495.998 624.81,495.693 624.637,495.402C624.463,495.112 624.18,494.865 623.787,494.661C623.395,494.459 622.858,494.291 622.175,494.161C621.492,494.03 620.628,493.951 619.583,493.921L614.094,493.834L614.094,512.263Z" style="fill-rule:nonzero;"/>
    </g>
    <g transform="matrix(4.14474,0,0,4.14474,-1752.89,-2034.89)">
        <path d="M634.92,511.871L634.92,497.494C634.92,496.826 634.913,496.296 634.898,495.903C634.884,495.512 634.861,495.141 634.833,494.793C634.774,494.038 634.63,493.471 634.398,493.093C634.165,492.717 633.685,492.455 632.96,492.31C632.785,492.251 632.546,492.215 632.241,492.201C631.935,492.186 631.681,492.179 631.478,492.179C631.245,492.179 631.13,492.092 631.13,491.917C631.13,491.685 631.362,491.568 631.827,491.568L633.396,491.568C633.947,491.568 634.47,491.584 634.963,491.612L636.75,491.699L641.455,491.699C642.646,491.699 643.757,491.693 644.788,491.677C645.818,491.663 646.465,491.656 646.726,491.656C647.569,491.598 648.192,491.525 648.599,491.438C648.716,491.41 648.817,491.366 648.905,491.307C648.992,491.25 649.093,491.22 649.21,491.22C649.325,491.22 649.385,491.351 649.385,491.612C649.385,491.758 649.341,491.983 649.253,492.287C649.167,492.592 649.093,493.05 649.035,493.66C649.035,493.776 649.028,493.965 649.014,494.226C648.999,494.487 648.978,494.771 648.949,495.076C648.92,495.381 648.897,495.672 648.884,495.947C648.868,496.224 648.846,496.419 648.817,496.536C648.789,496.652 648.752,496.761 648.709,496.862C648.666,496.964 648.599,497.015 648.513,497.015C648.281,497.015 648.165,496.826 648.165,496.448C648.165,496.303 648.149,496.071 648.12,495.751C648.091,495.432 648.019,495.141 647.902,494.88C647.757,494.532 647.495,494.234 647.119,493.987C646.74,493.74 645.971,493.544 644.809,493.399C644.635,493.37 644.244,493.348 643.633,493.333C643.024,493.319 642.385,493.305 641.716,493.29C641.048,493.275 640.423,493.268 639.843,493.268L638.841,493.268C638.667,493.268 638.58,493.414 638.58,493.704L638.58,505.728C638.58,506.019 638.667,506.164 638.841,506.164L642.109,506.164C642.893,506.164 643.633,506.156 644.33,506.142C645.027,506.128 645.506,506.106 645.768,506.076C646.292,506.019 646.712,505.961 647.032,505.902C647.351,505.844 647.612,505.699 647.816,505.467C648.135,505.089 648.353,504.9 648.47,504.9C648.614,504.9 648.688,505.016 648.688,505.249C648.688,505.394 648.644,505.656 648.556,506.033C648.47,506.411 648.396,506.963 648.338,507.689C648.309,507.921 648.288,508.175 648.273,508.451C648.259,508.728 648.244,509.003 648.23,509.279C648.214,509.555 648.201,509.802 648.187,510.019C648.171,510.237 648.165,510.389 648.165,510.477C648.165,510.652 648.149,510.832 648.12,511.021C648.091,511.21 648.005,511.304 647.859,511.304C647.656,511.304 647.555,511.174 647.555,510.913C647.555,510.68 647.547,510.455 647.533,510.237C647.517,510.019 647.468,509.765 647.38,509.474C647.293,509.155 647.104,508.843 646.814,508.539C646.523,508.233 645.957,508.038 645.115,507.95C644.824,507.921 644.366,507.892 643.743,507.862C643.118,507.834 642.478,507.813 641.825,507.798C641.172,507.784 640.562,507.769 639.996,507.753C639.429,507.741 639.059,507.732 638.885,507.732C638.681,507.732 638.58,507.834 638.58,508.038L638.58,519.32C638.608,520.076 638.688,520.687 638.82,521.15C638.95,521.615 639.196,521.979 639.56,522.24C639.922,522.501 640.423,522.676 641.063,522.762C641.702,522.85 642.558,522.894 643.633,522.894C644.215,522.894 644.91,522.872 645.724,522.827C646.537,522.784 647.234,522.647 647.816,522.414C648.396,522.182 648.832,521.826 649.123,521.346C649.413,520.867 649.63,520.177 649.776,519.277C649.864,518.841 649.994,518.623 650.168,518.623C650.314,518.623 650.393,518.696 650.408,518.841C650.422,518.987 650.43,519.132 650.43,519.277C650.43,519.365 650.408,519.59 650.365,519.952C650.321,520.316 650.269,520.723 650.212,521.172C650.154,521.623 650.096,522.065 650.037,522.501C649.979,522.937 649.922,523.27 649.864,523.503C649.776,523.794 649.689,524.012 649.603,524.156C649.515,524.302 649.385,524.41 649.21,524.483C649.035,524.555 648.817,524.6 648.556,524.614C648.295,524.628 647.947,524.636 647.511,524.636C645.856,524.636 644.424,524.621 643.219,524.592C642.014,524.563 640.99,524.533 640.148,524.506C639.305,524.447 638.608,524.41 638.056,524.396C637.505,524.382 637.069,524.374 636.75,524.374L636.183,524.374C635.864,524.374 635.471,524.389 635.007,524.418C634.572,524.418 634.12,524.432 633.657,524.461C633.192,524.49 632.8,524.506 632.481,524.506C632.016,524.506 631.784,524.389 631.784,524.156C631.784,523.982 631.899,523.895 632.132,523.895C632.335,523.895 632.553,523.881 632.785,523.852C633.018,523.823 633.236,523.78 633.439,523.721C633.875,523.634 634.172,523.373 634.333,522.937C634.491,522.501 634.615,521.964 634.702,521.325C634.818,520.395 634.884,519.111 634.898,517.47C634.913,515.829 634.92,513.963 634.92,511.871Z" style="fill-rule:nonzero;"/>
    </g>
    <g transform="matrix(4.14474,0,0,4.14474,-1752.89,-2033.45)">
        <path d="M665.154,511.609C665.154,514.804 665.212,517.171 665.327,518.71C665.444,520.25 665.705,521.208 666.112,521.586C666.286,521.76 666.496,521.913 666.743,522.044C666.99,522.174 667.31,522.276 667.703,522.349C668.094,522.421 668.588,522.478 669.184,522.523C669.778,522.566 670.497,522.588 671.34,522.588C672.502,522.588 673.539,522.53 674.455,522.413C675.37,522.298 676.088,521.92 676.611,521.28C676.901,520.933 677.149,520.511 677.353,520.018C677.555,519.524 677.686,519.074 677.744,518.667C677.802,518.29 677.933,518.101 678.136,518.101C678.311,518.101 678.398,518.319 678.398,518.755C678.398,518.87 678.383,519.103 678.354,519.452C678.325,519.8 678.274,520.192 678.201,520.628C678.129,521.063 678.056,521.506 677.983,521.956C677.911,522.406 677.832,522.792 677.744,523.111C677.657,523.372 677.576,523.575 677.504,523.721C677.432,523.867 677.308,523.982 677.135,524.069C676.96,524.157 676.706,524.215 676.371,524.244C676.038,524.272 675.58,524.287 675,524.287C673.431,524.287 672.066,524.272 670.904,524.244C669.742,524.215 668.697,524.184 667.768,524.157C666.838,524.098 666.024,524.062 665.327,524.047C664.63,524.033 663.962,524.026 663.324,524.026C663.236,524.026 663.025,524.033 662.692,524.047C662.358,524.062 661.973,524.069 661.537,524.069C661.101,524.098 660.658,524.119 660.209,524.134C659.758,524.148 659.374,524.157 659.055,524.157C658.59,524.157 658.358,524.04 658.358,523.808C658.358,523.633 658.473,523.546 658.705,523.546C658.909,523.546 659.127,523.532 659.359,523.503C659.592,523.474 659.81,523.431 660.013,523.372C660.449,523.285 660.746,523.024 660.906,522.588C661.065,522.152 661.189,521.615 661.276,520.976C661.391,520.046 661.458,518.762 661.472,517.121C661.487,515.48 661.494,513.614 661.494,511.522L661.494,497.145C661.494,496.477 661.487,495.947 661.472,495.555C661.458,495.163 661.435,494.793 661.407,494.444C661.348,493.689 661.204,493.123 660.971,492.745C660.739,492.368 660.258,492.107 659.534,491.961C659.359,491.902 659.12,491.866 658.815,491.852C658.509,491.837 658.255,491.83 658.052,491.83C657.819,491.83 657.704,491.743 657.704,491.568C657.704,491.337 657.936,491.22 658.401,491.22C658.894,491.22 659.417,491.228 659.97,491.242C660.521,491.256 661.036,491.271 661.516,491.285C661.995,491.3 662.402,491.314 662.735,491.329C663.068,491.344 663.265,491.35 663.324,491.35C663.382,491.35 663.6,491.344 663.978,491.329C664.354,491.314 664.79,491.3 665.284,491.285C665.778,491.271 666.278,491.256 666.788,491.242C667.294,491.228 667.709,491.22 668.029,491.22C668.494,491.22 668.726,491.337 668.726,491.568C668.726,491.743 668.609,491.83 668.377,491.83C668.231,491.83 668.022,491.837 667.746,491.852C667.469,491.866 667.201,491.902 666.939,491.961C666.3,492.077 665.873,492.331 665.655,492.723C665.437,493.115 665.298,493.689 665.241,494.444C665.212,494.793 665.19,495.163 665.176,495.555C665.16,495.947 665.154,496.477 665.154,497.145L665.154,511.609Z" style="fill-rule:nonzero;"/>
    </g>
    <g transform="matrix(4.14474,0,0,4.14474,-1752.89,-983.984)">
        <path d="M505.341,377.43C509.579,379.676 509.66,384.39 506.15,387.141C500.802,391.329 492.477,387.391 492.171,381.226C491.733,372.476 503.89,360.513 531.25,370.371C552.25,377.934 576.329,398.262 593.384,384.988C606.141,375.061 592.493,357.525 580.931,362.65C570.516,367.263 580.013,377.71 586.699,373.27C590.203,370.944 589.531,369.14 589.195,367.381C590.439,368.037 591.148,371.866 587.393,374.164C585.949,375.053 584.156,375.982 581.533,375.61C570.341,374.038 571.449,359.916 585.978,360.221C598.268,360.477 606.481,377.792 593.235,387.047C568.222,404.527 541.981,369.008 513.638,368.131C492.46,367.477 489.863,387.058 501.005,387.318C502.771,387.348 504.231,386.82 505.3,386.003L505.302,386.003C510.216,381.679 506.201,378.483 505.341,377.43" style="fill-rule:nonzero;"/>
    </g>
    <g transform="matrix(4.14474,0,0,4.14474,-1752.89,-983.984)">
        <path d="M694.657,377.43C690.42,379.676 690.339,384.39 693.849,387.141C699.197,391.329 707.521,387.391 707.829,381.226C708.266,372.476 696.109,360.513 668.749,370.371C647.749,377.934 623.67,398.262 606.615,384.988C593.857,375.061 607.506,357.525 619.068,362.65C629.483,367.263 619.986,377.71 613.299,373.27C609.796,370.944 610.468,369.14 610.804,367.381C609.56,368.037 608.851,371.866 612.606,374.164C614.05,375.053 615.843,375.982 618.466,375.61C629.658,374.038 628.55,359.916 614.02,360.221C601.731,360.477 593.518,377.792 606.764,387.047C631.777,404.527 658.017,369.008 686.361,368.131C707.538,367.477 710.136,387.058 698.994,387.318C697.228,387.348 695.768,386.82 694.7,386.003L694.697,386.003C689.783,381.679 693.798,378.483 694.657,377.43" style="fill-rule:nonzero;"/>
    </g>
    <g transform="matrix(4.14474,0,0,4.14474,-1752.89,-1037.79)">
        <path d="M608.581,389.86C611.341,388.397 611.393,385.328 609.108,383.534C605.624,380.808 600.202,383.372 600.002,387.388C599.716,393.085 607.636,400.879 625.457,394.458C639.135,389.531 654.819,376.291 665.928,384.936C674.237,391.402 665.348,402.825 657.817,399.486C651.033,396.481 657.219,389.679 661.574,392.569C663.856,394.084 663.418,395.26 663.199,396.406C664.01,395.979 664.472,393.485 662.026,391.986C661.085,391.41 659.918,390.803 658.209,391.044C650.918,392.069 651.641,401.267 661.104,401.068C669.109,400.903 674.459,389.624 665.83,383.597C649.539,372.21 632.446,395.346 613.985,395.918C600.191,396.341 598.498,383.589 605.756,383.419C606.907,383.4 607.857,383.742 608.554,384.276L608.555,384.276C611.756,387.093 609.142,389.175 608.581,389.86" style="fill-rule:nonzero;"/>
    </g>
    <g transform="matrix(4.14474,0,0,4.14474,-1752.89,-1037.79)">
        <path d="M591.418,389.86C588.658,388.397 588.604,385.328 590.891,383.534C594.375,380.808 599.797,383.372 599.997,387.388C600.281,393.085 592.363,400.879 574.543,394.458C560.864,389.531 545.18,376.291 534.071,384.936C525.761,391.402 534.651,402.825 542.182,399.486C548.966,396.481 542.78,389.679 538.424,392.569C536.142,394.084 536.581,395.26 536.8,396.406C535.989,395.979 535.527,393.485 537.973,391.986C538.914,391.41 540.081,390.803 541.79,391.044C549.08,392.069 548.358,401.267 538.894,401.068C530.89,400.903 525.54,389.624 534.169,383.597C550.46,372.21 567.553,395.346 586.014,395.918C599.808,396.341 601.5,383.589 594.243,383.419C593.092,383.4 592.141,383.742 591.445,384.276L591.444,384.276C588.243,387.093 590.858,389.175 591.418,389.86" style="fill-rule:nonzero;"/>
    </g>
</svg>
