<svg width="289" height="1049" viewBox="0 0 289 1049" fill="none" xmlns="http://www.w3.org/2000/svg">
<g opacity="0.7">
<g opacity="0.4">
<path d="M246.47 819.431C245.922 819.524 245.388 819.722 244.843 819.845C226.09 824.084 213.378 844.103 216.613 865.594C219.359 883.83 231.647 896.585 248.137 898.895C249.81 899.129 250.265 899.757 250.25 901.624C250.21 906.834 250.241 912.044 250.279 917.255H254.064C254.046 912.124 254.02 906.993 253.892 901.865C253.835 899.575 254.573 899.04 256.42 898.816C277.67 896.234 292.273 872.464 286.881 849.331C283.042 832.859 271.327 821.428 256.05 819.312C254.642 819.117 253.89 818.811 253.902 816.859C253.985 801.447 253.962 786.035 253.922 770.623C253.919 769.252 254.325 768.308 255.193 767.384C257.363 765.077 259.392 762.602 261.591 760.334C262.699 759.193 262.573 758.515 261.538 757.441C259.395 755.218 257.423 752.789 255.287 750.556C254.287 749.51 253.917 748.411 253.922 746.891C253.965 731.791 254.013 716.689 253.882 701.589C253.86 699.141 254.656 698.648 256.535 698.429C276.791 696.066 291.597 673.238 287.288 651.1C283.805 633.203 272.227 621.281 255.935 618.939C254.352 618.711 253.906 618.112 253.913 616.352C253.974 601.018 253.961 585.684 253.926 570.349C253.923 569.004 254.235 568.013 255.122 567.075C257.246 564.827 259.19 562.359 261.379 560.199C262.759 558.837 262.549 558.056 261.309 556.805C259.242 554.722 257.394 552.369 255.35 550.256C254.286 549.155 253.915 547.987 253.92 546.383C253.969 531.283 253.986 516.182 253.906 501.082C253.895 499.042 254.38 498.324 256.234 498.085C282.532 494.68 296.595 461.735 282.339 436.857C276.252 426.235 267.461 420.176 256.24 418.561C255.031 418.387 253.882 418.535 253.897 416.312C253.996 400.745 253.961 385.176 253.928 369.609C253.925 368.397 254.322 367.577 255.061 366.775C257.162 364.5 259.144 362.082 261.31 359.888C262.546 358.635 262.762 357.855 261.38 356.495C259.241 354.389 257.362 351.957 255.272 349.783C254.263 348.733 253.92 347.619 253.924 346.111C253.965 331.009 253.994 315.909 253.899 300.808C253.886 298.635 254.406 297.926 256.349 297.684C282.231 294.47 296.446 261.635 282.619 236.956C276.499 226.034 267.596 219.779 256.123 218.183C254.782 217.996 253.887 217.863 253.899 215.805C253.991 200.316 253.959 184.825 253.93 169.335C253.928 168.155 254.227 167.288 254.991 166.468C257.201 164.094 259.296 161.586 261.539 159.253C262.572 158.178 262.702 157.5 261.592 156.359C259.44 154.148 257.48 151.703 255.335 149.483C254.266 148.377 253.915 147.201 253.92 145.604C253.967 130.582 254 115.558 253.894 100.536C253.877 98.2403 254.437 97.4592 256.464 97.29C261.467 96.8727 266.114 94.9772 270.368 92.0892C292.868 76.8155 294.02 41.7608 272.597 24.7205C267.639 20.7754 262.079 18.4969 256.013 17.7438C255.179 17.6406 253.928 18.0374 253.943 16.2313C253.991 10.8204 254.021 5.41043 254.051 0H250.279C250.245 5.10085 250.218 10.2012 250.241 15.3012C250.248 16.9513 249.872 17.5829 248.343 17.7631C238.394 18.9326 230.185 23.8798 223.985 32.6148C217.282 42.058 214.881 52.8541 216.734 64.7669C219.443 82.187 232.542 95.7527 248.343 97.4203C249.874 97.5822 250.245 98.2274 250.239 99.8785C250.182 115.291 250.186 130.703 250.235 146.115C250.24 147.584 249.814 148.579 248.895 149.558C246.675 151.919 244.569 154.414 242.352 156.78C241.623 157.557 241.621 157.997 242.351 158.777C244.615 161.2 246.766 163.756 249.041 166.165C249.932 167.108 250.231 168.099 250.228 169.44C250.193 184.775 250.173 200.11 250.247 215.444C250.256 217.309 249.818 217.97 248.138 218.174C238.19 219.388 230.015 224.404 223.857 233.177C217.25 242.59 214.894 253.321 216.733 265.144C219.441 282.55 232.528 296.129 248.343 297.8C249.874 297.961 250.245 298.606 250.239 300.258C250.182 315.67 250.186 331.082 250.236 346.494C250.241 347.963 249.814 348.96 248.896 349.937C246.676 352.298 244.569 354.793 242.352 357.158C241.623 357.937 241.622 358.376 242.351 359.156C244.616 361.578 246.778 364.12 249.037 366.55C249.841 367.415 250.234 368.292 250.231 369.586C250.192 385.076 250.183 400.567 250.239 416.056C250.245 417.706 249.872 418.34 248.345 418.52C238.395 419.689 230.185 424.636 223.987 433.372C217.285 442.814 214.88 453.609 216.735 465.523C219.443 482.93 232.53 496.508 248.343 498.178C249.874 498.34 250.245 498.984 250.24 500.635C250.183 516.126 250.192 531.616 250.231 547.106C250.234 548.401 249.841 549.276 249.037 550.143C246.779 552.572 244.617 555.113 242.352 557.537C241.625 558.315 241.621 558.753 242.351 559.534C244.616 561.956 246.766 564.513 249.042 566.921C249.933 567.865 250.23 568.858 250.228 570.197C250.193 585.609 250.183 601.023 250.239 616.435C250.245 618.084 249.873 618.719 248.345 618.898C238.395 620.068 230.186 625.014 223.986 633.75C217.284 643.193 214.88 653.988 216.734 665.901C219.444 683.314 232.536 696.888 248.343 698.557C249.874 698.718 250.245 699.364 250.24 701.015C250.183 716.505 250.193 731.995 250.231 747.485C250.235 748.779 249.841 749.656 249.037 750.521C246.778 752.951 244.617 755.493 242.352 757.915C241.623 758.695 241.621 759.134 242.352 759.913C244.569 762.278 246.657 764.795 248.901 767.126C249.921 768.185 250.233 769.31 250.229 770.81C250.19 785.444 250.205 800.078 250.205 814.712C250.205 818.8 250.205 818.794 246.47 819.431ZM218.815 57.5357C218.845 37.0732 233.664 20.53 251.97 20.5231C270.417 20.5162 285.411 37.1965 285.338 57.6453C285.264 78.1056 270.404 94.6451 252.082 94.658C233.647 94.6699 218.785 78.0859 218.815 57.5357ZM245.991 157.798C245.984 157.432 251.648 151.126 251.99 151.118C252.315 151.11 258.019 157.389 258.026 157.761C258.033 158.125 252.367 164.432 252.026 164.44C251.698 164.449 245.998 158.174 245.991 157.798ZM218.815 257.925C218.847 237.357 233.697 220.873 252.169 220.901C270.446 220.93 285.39 237.649 285.337 258.012C285.284 278.555 270.374 295.056 251.882 295.036C233.624 295.016 218.785 278.363 218.815 257.925ZM246.45 358.914C245.756 358.177 246.131 357.755 246.606 357.23C248.137 355.539 249.655 353.832 251.184 352.138C251.566 351.715 251.919 351.116 252.541 351.815C254.255 353.741 255.984 355.651 257.698 357.576C257.841 357.736 257.925 357.958 258.024 358.131C258.022 358.534 252.322 364.881 252.006 364.799C251.759 364.734 251.515 364.534 251.328 364.329C249.699 362.528 248.111 360.678 246.45 358.914ZM218.815 458.341C218.82 437.78 233.676 421.255 252.135 421.279C270.431 421.304 285.344 437.956 285.337 458.352C285.329 478.947 270.341 495.465 251.707 495.414C233.602 495.364 218.811 478.694 218.815 458.341ZM246.602 559.444C246.231 559.026 245.687 558.634 246.318 557.938C248.049 556.031 249.762 554.103 251.489 552.191C251.627 552.039 251.823 551.953 252.052 551.795C252.274 551.992 252.503 552.155 252.691 552.365C254.316 554.171 255.906 556.018 257.567 557.783C258.263 558.523 257.876 558.945 257.405 559.466C255.874 561.159 254.325 562.832 252.841 564.574C252.205 565.322 251.78 565.284 251.16 564.559C249.674 562.819 248.118 561.153 246.602 559.444ZM218.815 658.805C218.762 638.271 233.638 621.648 252.059 621.657C270.393 621.667 285.238 638.168 285.338 658.645C285.437 679.077 270.433 695.791 251.992 695.792C233.678 695.793 218.869 679.283 218.815 658.805ZM246.84 760.117C245.99 759.258 245.848 758.659 246.796 757.76C248.631 756.019 250.126 752.453 252.053 752.625C253.92 752.791 255.572 756.004 257.308 757.892C257.592 758.201 257.821 758.574 258.097 758.945C257.811 759.313 257.61 759.634 257.355 759.888C255.507 761.735 254.038 764.033 251.934 765.575C250.242 763.749 248.584 761.88 246.84 760.117ZM251.985 822.036C270.425 822.031 285.428 838.736 285.338 859.173C285.248 879.643 270.396 896.159 252.067 896.17C233.643 896.18 218.76 879.558 218.816 859.033C218.871 838.547 233.669 822.04 251.985 822.036Z" fill="#BFB99F"/>
<path d="M252.122 488.383C237.207 488.43 225.205 475.119 225.113 458.43C225.021 441.87 237.093 428.333 251.972 428.31C266.893 428.287 278.884 441.57 279.014 458.263C279.141 474.74 267.002 488.337 252.122 488.383ZM276.272 458.481C276.274 443.46 265.494 431.27 252.193 431.248C238.814 431.226 227.787 443.387 227.742 458.212C227.695 473.085 238.679 485.439 251.951 485.445C265.368 485.45 276.27 473.364 276.272 458.481Z" fill="#FF7619"/>
<path d="M279.014 57.5617C279.066 74.0998 266.971 87.5963 252.072 87.6271C237.177 87.6578 225.15 74.2718 225.111 57.6204C225.074 41.1213 237.044 27.6413 251.81 27.5551C266.842 27.4666 278.961 40.8356 279.014 57.5617ZM276.271 57.5388C276.27 42.6114 265.409 30.4949 252.025 30.4926C238.722 30.4913 227.723 42.7875 227.741 57.6434C227.759 72.3896 238.742 84.6795 251.91 84.6895C265.436 84.6992 276.272 72.6221 276.271 57.5388Z" fill="#FF7619"/>
<path d="M252.04 288.006C237.151 288.019 225.1 274.574 225.112 257.962C225.125 241.331 237.165 227.912 252.054 227.933C266.96 227.955 279.027 241.403 279.013 257.977C279.001 274.573 266.945 287.994 252.04 288.006ZM276.272 257.931C276.271 242.994 265.416 230.874 252.038 230.871C238.728 230.868 227.729 243.154 227.742 258.008C227.755 272.756 238.735 285.056 251.899 285.068C265.43 285.079 276.273 273.007 276.272 257.931Z" fill="#B87333"/>
<path d="M252.296 628.688C267.08 628.82 279.088 642.342 279.013 658.771C278.936 675.516 266.825 688.861 251.795 688.761C237.027 688.663 225.062 675.173 225.111 658.678C225.163 641.93 237.288 628.553 252.296 628.688ZM276.271 658.855C276.273 643.839 265.489 631.648 252.189 631.627C238.812 631.605 227.786 643.768 227.741 658.595C227.696 673.468 238.679 685.818 251.955 685.823C265.371 685.828 276.269 673.74 276.271 658.855Z" fill="#FF7619"/>
<path d="M251.92 889.14C237.061 889.1 224.957 875.474 225.112 858.962C225.269 842.232 237.251 828.996 252.173 829.068C267.056 829.14 279.228 842.825 279.015 859.245C278.796 876 266.851 889.179 251.92 889.14ZM276.271 859.238C276.274 844.217 265.494 832.027 252.193 832.006C238.814 831.984 227.787 844.144 227.742 858.969C227.696 873.843 238.678 886.197 251.952 886.202C265.37 886.207 276.27 874.122 276.271 859.238Z" fill="#FF7619"/>
<path d="M269.985 458.502C269.974 469.406 261.841 478.422 252.015 478.424C242.245 478.425 234.087 469.353 234.03 458.423C233.972 447.438 242.209 438.243 252.086 438.27C262 438.296 269.997 447.335 269.985 458.502ZM252.059 441.363C243.543 441.365 236.843 448.787 236.801 458.269C236.759 467.831 243.514 475.349 252.129 475.329C260.569 475.31 267.378 467.696 267.352 458.307C267.327 448.9 260.524 441.362 252.059 441.363Z" fill="#B87333"/>
<path d="M269.985 57.7079C269.977 68.6292 261.869 77.6527 252.049 77.6665C242.181 77.6811 233.942 68.4471 234.029 57.4722C234.116 46.5293 242.271 37.4976 252.051 37.5127C261.965 37.5278 269.993 46.5674 269.985 57.7079ZM251.891 74.5726C260.481 74.6322 267.357 67.0763 267.352 57.5827C267.348 48.2817 260.607 40.6823 252.296 40.6075C243.634 40.5296 236.859 47.9075 236.801 57.4814C236.744 66.9516 243.421 74.5143 251.891 74.5726Z" fill="#C1E5DB"/>
<path d="M269.984 258.123C269.974 269.029 261.845 278.043 252.017 278.046C242.247 278.05 234.09 268.981 234.029 258.048C233.967 247.067 242.208 237.866 252.083 237.893C261.997 237.918 269.995 246.958 269.984 258.123ZM252.15 240.987C243.53 240.963 236.771 248.464 236.801 258.023C236.83 267.505 243.522 274.941 252.037 274.952C260.502 274.965 267.312 267.442 267.352 258.032C267.393 248.648 260.58 241.009 252.15 240.987Z" fill="#BFB99F"/>
<path d="M269.984 658.815C269.979 669.748 261.886 678.78 252.073 678.802C242.2 678.824 233.959 669.614 234.029 658.634C234.098 647.696 242.252 638.641 252.026 638.647C261.947 638.654 269.991 647.688 269.984 658.815ZM251.982 675.707C260.458 675.738 267.265 668.271 267.352 658.848C267.438 649.488 260.615 641.783 252.205 641.741C243.564 641.698 236.804 649.148 236.801 658.717C236.798 668.198 243.48 675.676 251.982 675.707Z" fill="#BFB99F"/>
<path d="M269.984 859.26C269.973 870.163 261.84 879.177 252.012 879.18C242.244 879.181 234.085 870.107 234.029 859.178C233.972 848.19 242.208 838.999 252.086 839.025C262 839.053 269.996 848.093 269.984 859.26ZM252.127 842.12C243.591 842.1 236.877 849.473 236.8 858.949C236.723 868.519 243.458 876.083 252.06 876.086C260.523 876.088 267.328 868.547 267.352 859.139C267.376 849.75 260.566 842.139 252.127 842.12Z" fill="#DAC953"/>
<path d="M252.008 468.297C246.944 468.296 243.054 463.914 243.1 458.259C243.146 452.694 246.98 448.424 251.957 448.397C256.983 448.369 261.029 452.782 261.052 458.318C261.076 463.828 257.025 468.298 252.008 468.297ZM258.287 458.439C258.312 454.419 255.576 451.324 252.007 451.334C248.597 451.343 245.77 454.46 245.728 458.255C245.684 462.147 248.554 465.371 252.051 465.36C255.537 465.349 258.263 462.324 258.287 458.439Z" fill="#F1C7B9"/>
<path d="M251.92 67.5405C246.876 67.496 243.007 63.0506 243.1 57.4058C243.192 51.8412 247.054 47.6233 252.042 47.6407C257.056 47.6576 261.108 52.1627 261.052 57.6585C260.995 63.2115 256.955 67.5846 251.92 67.5405ZM258.287 57.6621C258.306 53.6482 255.559 50.558 251.989 50.5773C248.581 50.5947 245.762 53.7212 245.728 57.5177C245.693 61.4151 248.564 64.6218 252.069 64.6026C255.552 64.5847 258.268 61.5513 258.287 57.6621Z" fill="#DAC953"/>
<path d="M252.035 267.918C246.971 267.932 243.069 263.563 243.1 257.912C243.13 252.351 246.96 248.058 251.927 248.018C256.962 247.977 260.999 252.353 261.051 257.908C261.101 263.409 257.053 267.904 252.035 267.918ZM258.287 257.945C258.28 254.047 255.585 250.995 252.113 250.955C248.598 250.915 245.717 254.089 245.728 257.991C245.738 261.798 248.536 264.943 251.945 264.982C255.52 265.021 258.293 261.945 258.287 257.945Z" fill="#F1C7B9"/>
<path d="M251.991 668.675C246.93 668.666 243.046 664.271 243.1 658.618C243.154 653.056 246.997 648.793 251.973 648.774C256.997 648.756 261.044 653.186 261.051 658.715C261.059 664.238 257.014 668.684 251.991 668.675ZM258.287 658.615C258.258 654.736 255.523 651.716 252.035 651.712C248.541 651.707 245.675 654.944 245.728 658.834C245.78 662.631 248.611 665.735 252.023 665.738C255.593 665.74 258.317 662.642 258.287 658.615Z" fill="#C1E5DB"/>
<path d="M251.943 869.053C246.893 869.019 243.021 864.592 243.101 858.943C243.179 853.378 247.034 849.146 252.021 849.152C257.033 849.158 261.089 853.648 261.052 859.147C261.015 864.691 256.972 869.087 251.943 869.053ZM258.287 859.2C258.314 855.177 255.582 852.082 252.012 852.09C248.6 852.098 245.773 855.21 245.728 859.006C245.682 862.899 248.549 866.125 252.047 866.116C255.533 866.107 258.261 863.083 258.287 859.2Z" fill="#DAC953"/>
</g>
<g opacity="0.4">
<path d="M174.359 950.624C173.811 950.717 173.278 950.916 172.733 951.039C153.98 955.278 141.268 975.296 144.503 996.788C147.249 1015.02 159.537 1027.78 176.026 1030.09C177.7 1030.32 178.154 1030.95 178.14 1032.82C178.099 1038.03 178.131 1043.24 178.169 1048.45H181.954C181.936 1043.32 181.909 1038.19 181.782 1033.06C181.725 1030.77 182.462 1030.23 184.309 1030.01C205.56 1027.43 220.162 1003.66 214.771 980.524C210.932 964.052 199.217 952.621 183.94 950.506C182.532 950.311 181.78 950.005 181.791 948.053C181.875 932.641 181.852 917.229 181.812 901.816C181.809 900.445 182.214 899.501 183.083 898.578C185.252 896.271 187.281 893.795 189.481 891.527C190.588 890.386 190.463 889.708 189.428 888.634C187.285 886.411 185.313 883.983 183.177 881.75C182.177 880.704 181.807 879.604 181.811 878.084C181.855 862.984 181.903 847.882 181.772 832.782C181.75 830.335 182.545 829.841 184.425 829.622C204.68 827.26 219.486 804.431 215.177 782.293C211.694 764.396 200.117 752.475 183.824 750.132C182.241 749.904 181.795 749.306 181.803 747.546C181.864 732.211 181.85 716.877 181.816 701.542C181.812 700.197 182.125 699.206 183.012 698.268C185.136 696.02 187.079 693.553 189.268 691.392C190.648 690.03 190.438 689.249 189.199 687.998C187.132 685.915 185.284 683.562 183.239 681.449C182.175 680.348 181.804 679.18 181.809 677.577C181.858 662.477 181.875 647.375 181.795 632.275C181.784 630.236 182.27 629.518 184.124 629.278C210.422 625.873 224.485 592.928 210.229 568.05C204.142 557.428 195.35 551.369 184.13 549.755C182.921 549.58 181.772 549.729 181.786 547.505C181.886 531.938 181.851 516.37 181.817 500.802C181.815 499.59 182.211 498.77 182.951 497.969C185.052 495.693 187.034 493.276 189.199 491.081C190.436 489.828 190.651 489.048 189.269 487.688C187.13 485.582 185.252 483.15 183.162 480.976C182.153 479.927 181.81 478.813 181.814 477.304C181.855 462.203 181.883 447.102 181.789 432.002C181.775 429.829 182.295 429.119 184.239 428.877C210.12 425.664 224.335 392.828 210.508 368.149C204.389 357.227 195.485 350.972 184.013 349.376C182.672 349.19 181.777 349.056 181.789 346.998C181.881 331.509 181.848 316.019 181.82 300.529C181.818 299.349 182.117 298.482 182.881 297.661C185.09 295.288 187.186 292.78 189.429 290.447C190.462 289.371 190.591 288.693 189.482 287.553C187.33 285.341 185.37 282.897 183.224 280.677C182.155 279.57 181.805 278.394 181.809 276.797C181.857 261.775 181.889 246.751 181.783 231.729C181.767 229.434 182.326 228.653 184.353 228.483C189.357 228.066 194.004 226.171 198.257 223.283C220.758 208.009 221.91 172.954 200.487 155.914C195.528 151.969 189.969 149.69 183.902 148.937C183.068 148.834 181.817 149.231 181.833 147.425C181.881 142.014 181.911 136.604 181.94 131.193H178.168C178.135 136.294 178.107 141.395 178.131 146.495C178.138 148.145 177.762 148.776 176.233 148.956C166.284 150.126 158.075 155.073 151.874 163.808C145.172 173.251 142.771 184.047 144.623 195.96C147.333 213.38 160.431 226.946 176.232 228.614C177.764 228.776 178.135 229.421 178.128 231.072C178.071 246.484 178.076 261.896 178.125 277.308C178.13 278.777 177.704 279.773 176.784 280.751C174.565 283.112 172.459 285.607 170.242 287.973C169.513 288.751 169.511 289.19 170.241 289.971C172.505 292.393 174.655 294.949 176.931 297.358C177.821 298.302 178.12 299.293 178.118 300.634C178.083 315.968 178.063 331.303 178.137 346.637C178.146 348.503 177.707 349.163 176.027 349.367C166.079 350.581 157.905 355.597 151.747 364.37C145.14 373.783 142.784 384.515 144.623 396.337C147.331 413.743 160.418 427.322 176.233 428.993C177.763 429.154 178.135 429.799 178.129 431.451C178.072 446.863 178.076 462.276 178.125 477.688C178.13 479.157 177.704 480.153 176.786 481.131C174.565 483.492 172.458 485.987 170.242 488.352C169.513 489.131 169.512 489.569 170.241 490.349C172.505 492.772 174.668 495.314 176.926 497.743C177.73 498.609 178.124 499.485 178.121 500.779C178.081 516.269 178.072 531.76 178.128 547.25C178.135 548.9 177.761 549.534 176.234 549.713C166.284 550.882 158.075 555.829 151.876 564.565C145.175 574.007 142.77 584.802 144.624 596.716C147.332 614.123 160.42 627.701 176.233 629.371C177.764 629.533 178.135 630.178 178.129 631.829C178.072 647.319 178.081 662.809 178.121 678.299C178.124 679.594 177.731 680.47 176.927 681.336C174.669 683.766 172.506 686.307 170.242 688.73C169.515 689.508 169.511 689.947 170.241 690.728C172.505 693.149 174.656 695.706 176.931 698.115C177.823 699.058 178.12 700.051 178.117 701.391C178.083 716.803 178.072 732.216 178.128 747.628C178.135 749.278 177.762 749.912 176.234 750.091C166.285 751.261 158.076 756.208 151.875 764.944C145.174 774.387 142.769 785.181 144.623 797.095C147.333 814.507 160.426 828.081 176.233 829.75C177.764 829.911 178.135 830.557 178.129 832.208C178.072 847.698 178.082 863.188 178.121 878.679C178.124 879.973 177.731 880.849 176.927 881.715C174.668 884.145 172.506 886.686 170.242 889.109C169.513 889.888 169.511 890.327 170.242 891.106C172.458 893.472 174.547 895.988 176.791 898.319C177.811 899.379 178.123 900.503 178.119 902.003C178.08 916.637 178.095 931.272 178.095 945.906C178.095 949.994 178.095 949.988 174.359 950.624ZM146.705 188.729C146.735 168.267 161.553 151.723 179.859 151.716C198.307 151.71 213.3 168.39 213.228 188.839C213.154 209.299 198.293 225.838 179.971 225.851C161.536 225.863 146.675 209.279 146.705 188.729ZM173.881 288.991C173.874 288.625 179.537 282.319 179.879 282.311C180.205 282.303 185.908 288.582 185.916 288.954C185.923 289.318 180.257 295.625 179.916 295.633C179.588 295.642 173.887 289.367 173.881 288.991ZM146.705 389.119C146.736 368.55 161.586 352.066 180.059 352.094C198.336 352.123 213.28 368.842 213.227 389.205C213.174 409.749 198.264 426.249 179.771 426.229C161.513 426.209 146.675 409.556 146.705 389.119ZM174.34 490.107C173.646 489.37 174.021 488.948 174.496 488.423C176.027 486.732 177.544 485.026 179.074 483.332C179.456 482.908 179.809 482.31 180.431 483.008C182.145 484.935 183.873 486.845 185.588 488.77C185.73 488.929 185.815 489.152 185.914 489.324C185.912 489.727 180.211 496.075 179.895 495.992C179.648 495.928 179.404 495.727 179.218 495.522C177.589 493.721 176.001 491.872 174.34 490.107ZM146.705 589.534C146.71 568.973 161.566 552.448 180.025 552.472C198.321 552.498 213.234 569.149 213.226 589.546C213.219 610.14 198.231 626.659 179.597 626.607C161.491 626.558 146.701 609.887 146.705 589.534ZM174.492 690.638C174.121 690.22 173.577 689.827 174.208 689.131C175.939 687.224 177.651 685.296 179.379 683.384C179.517 683.232 179.713 683.146 179.941 682.989C180.164 683.185 180.393 683.349 180.581 683.558C182.205 685.364 183.796 687.211 185.456 688.976C186.153 689.717 185.765 690.139 185.295 690.659C183.764 692.352 182.214 694.026 180.73 695.767C180.095 696.515 179.67 696.477 179.05 695.752C177.563 694.013 176.008 692.346 174.492 690.638ZM146.705 789.998C146.652 769.464 161.528 752.841 179.948 752.85C198.282 752.861 213.128 769.361 213.227 789.839C213.326 810.271 198.322 826.984 179.882 826.985C161.567 826.986 146.759 810.477 146.705 789.998ZM174.73 891.31C173.88 890.451 173.738 889.853 174.685 888.954C176.521 887.212 178.016 883.646 179.943 883.818C181.81 883.984 183.462 887.197 185.198 889.085C185.482 889.394 185.711 889.767 185.986 890.139C185.7 890.507 185.5 890.828 185.245 891.081C183.397 892.929 181.927 895.226 179.824 896.768C178.131 894.942 176.474 893.073 174.73 891.31ZM179.874 953.229C198.315 953.225 213.318 969.929 213.228 990.367C213.138 1010.84 198.285 1027.35 179.957 1027.36C161.532 1027.37 146.649 1010.75 146.705 990.226C146.761 969.74 161.559 953.234 179.874 953.229Z" fill="#BFB99F"/>
<path d="M180.011 619.576C165.096 619.623 153.095 606.313 153.002 589.623C152.911 573.063 164.982 559.526 179.862 559.503C194.782 559.48 206.774 572.763 206.904 589.456C207.031 605.933 194.892 619.53 180.011 619.576ZM204.161 589.675C204.163 574.654 193.384 562.463 180.082 562.441C166.704 562.42 155.677 574.58 155.632 589.405C155.585 604.278 166.568 616.632 179.841 616.638C193.258 616.643 204.159 604.558 204.161 589.675Z" fill="#FF7619"/>
<path d="M206.904 188.755C206.956 205.293 194.862 218.79 179.963 218.82C165.068 218.851 153.04 205.465 153.002 188.814C152.965 172.315 164.934 158.835 179.701 158.748C194.732 158.66 206.852 172.029 206.904 188.755ZM204.162 188.732C204.161 173.805 193.299 161.688 179.916 161.686C166.612 161.685 155.614 173.981 155.632 188.837C155.65 203.583 166.632 215.873 179.801 215.883C193.326 215.893 204.163 203.816 204.162 188.732Z" fill="#FF7619"/>
<path d="M179.93 419.199C165.041 419.212 152.989 405.767 153.002 389.156C153.014 372.524 165.054 359.105 179.943 359.126C194.849 359.148 206.917 372.596 206.903 389.171C206.89 405.766 194.835 419.187 179.93 419.199ZM204.162 389.124C204.161 374.188 193.306 362.067 179.928 362.064C166.618 362.062 155.618 374.347 155.632 389.201C155.645 403.949 166.625 416.249 179.788 416.261C193.319 416.272 204.162 404.2 204.162 389.124Z" fill="#B87333"/>
<path d="M180.187 759.881C194.97 760.013 206.979 773.536 206.903 789.965C206.826 806.709 194.715 820.054 179.686 819.954C164.918 819.857 152.952 806.366 153.002 789.871C153.053 773.123 165.178 759.747 180.187 759.881ZM204.162 790.048C204.164 775.033 193.38 762.841 180.079 762.82C166.703 762.799 155.677 774.962 155.632 789.788C155.587 804.662 166.57 817.011 179.846 817.016C193.261 817.021 204.16 804.934 204.162 790.048Z" fill="#FF7619"/>
<path d="M179.81 1020.33C164.952 1020.29 152.848 1006.67 153.002 990.156C153.16 973.425 165.141 960.189 180.064 960.261C194.946 960.333 207.119 974.019 206.905 990.439C206.686 1007.19 194.742 1020.37 179.81 1020.33ZM204.162 990.431C204.164 975.41 193.385 963.22 180.083 963.199C166.705 963.177 155.678 975.337 155.632 990.163C155.587 1005.04 166.569 1017.39 179.843 1017.4C193.261 1017.4 204.161 1005.32 204.162 990.431Z" fill="#FF7619"/>
<path d="M197.875 589.696C197.863 600.6 189.731 609.615 179.904 609.617C170.134 609.619 161.977 600.546 161.919 589.616C161.862 578.631 170.099 569.436 179.976 569.463C189.89 569.49 197.886 578.528 197.875 589.696ZM179.949 572.557C171.433 572.558 164.733 579.981 164.691 589.462C164.648 599.024 171.403 606.543 180.019 606.523C188.458 606.503 195.268 598.89 195.242 589.501C195.217 580.093 188.414 572.555 179.949 572.557Z" fill="#B87333"/>
<path d="M197.874 188.901C197.867 199.823 189.758 208.846 179.939 208.86C170.071 208.874 161.831 199.64 161.919 188.666C162.006 177.723 170.16 168.691 179.941 168.706C189.855 168.721 197.883 177.761 197.874 188.901ZM179.781 205.766C188.371 205.826 195.247 198.27 195.242 188.776C195.237 179.475 188.496 171.876 180.186 171.801C171.524 171.723 164.749 179.101 164.691 188.675C164.634 198.145 171.311 205.708 179.781 205.766Z" fill="#C1E5DB"/>
<path d="M197.875 389.317C197.865 400.223 189.735 409.236 179.907 409.239C170.137 409.243 161.98 400.175 161.919 389.242C161.858 378.26 170.099 369.06 179.974 369.086C189.888 369.112 197.886 378.151 197.875 389.317ZM180.04 372.18C171.421 372.156 164.662 379.658 164.692 389.217C164.721 398.699 171.412 406.134 179.928 406.146C188.393 406.158 195.202 398.635 195.243 389.226C195.283 379.841 188.47 372.203 180.04 372.18Z" fill="#BFB99F"/>
<path d="M197.874 790.008C197.869 800.942 189.775 809.973 179.962 809.995C170.089 810.017 161.849 800.807 161.918 789.828C161.988 778.89 170.142 769.834 179.916 769.841C189.836 769.848 197.88 778.881 197.874 790.008ZM179.872 806.9C188.348 806.931 195.155 799.464 195.242 790.041C195.327 780.681 188.505 772.976 180.094 772.934C171.454 772.892 164.694 780.341 164.691 789.91C164.688 799.391 171.37 806.869 179.872 806.9Z" fill="#BFB99F"/>
<path d="M197.875 990.453C197.864 1001.36 189.73 1010.37 179.903 1010.37C170.134 1010.37 161.975 1001.3 161.919 990.371C161.863 979.384 170.099 970.192 179.977 970.219C189.89 970.246 197.887 979.286 197.875 990.453ZM180.017 973.313C171.482 973.293 164.768 980.666 164.691 990.143C164.614 999.713 171.349 1007.28 179.951 1007.28C188.413 1007.28 195.219 999.741 195.242 990.333C195.267 980.944 188.457 973.332 180.017 973.313Z" fill="#DAC953"/>
<path d="M179.897 599.491C174.833 599.49 170.944 595.107 170.99 589.453C171.035 583.887 174.87 579.617 179.846 579.59C184.872 579.562 188.919 583.976 188.942 589.511C188.966 595.021 184.914 599.492 179.897 599.491ZM186.177 589.633C186.202 585.613 183.465 582.517 179.896 582.527C176.487 582.537 173.66 585.653 173.618 589.448C173.574 593.341 176.443 596.565 179.941 596.554C183.427 596.543 186.152 593.517 186.177 589.633Z" fill="#F1C7B9"/>
<path d="M179.81 198.734C174.766 198.689 170.897 194.244 170.99 188.599C171.081 183.035 174.944 178.817 179.932 178.834C184.946 178.851 188.998 183.356 188.942 188.852C188.885 194.405 184.844 198.778 179.81 198.734ZM186.176 188.856C186.196 184.842 183.449 181.751 179.879 181.771C176.471 181.788 173.651 184.915 173.617 188.711C173.583 192.608 176.453 195.815 179.958 195.796C183.441 195.778 186.158 192.745 186.176 188.856Z" fill="#DAC953"/>
<path d="M179.925 399.112C174.861 399.125 170.959 394.756 170.989 389.105C171.02 383.544 174.85 379.252 179.817 379.211C184.852 379.171 188.889 383.547 188.941 389.102C188.991 394.602 184.943 399.098 179.925 399.112ZM186.176 389.139C186.17 385.24 183.474 382.188 180.003 382.148C176.488 382.108 173.607 385.282 173.617 389.185C173.628 392.991 176.425 396.136 179.834 396.175C183.41 396.214 186.183 393.138 186.176 389.139Z" fill="#F1C7B9"/>
<path d="M179.881 799.868C174.82 799.859 170.935 795.464 170.99 789.811C171.044 784.249 174.886 779.986 179.862 779.968C184.887 779.949 188.933 784.379 188.941 789.909C188.949 795.431 184.904 799.878 179.881 799.868ZM186.177 789.808C186.148 785.93 183.412 782.909 179.925 782.905C176.431 782.9 173.564 786.137 173.618 790.027C173.67 793.824 176.501 796.929 179.913 796.931C183.482 796.933 186.207 793.835 186.177 789.808Z" fill="#C1E5DB"/>
<path d="M179.833 1000.25C174.782 1000.21 170.911 995.785 170.99 990.136C171.069 984.571 174.924 980.34 179.911 980.346C184.922 980.352 188.979 984.841 188.942 990.34C188.905 995.884 184.862 1000.28 179.833 1000.25ZM186.177 990.394C186.204 986.371 183.471 983.275 179.901 983.284C176.49 983.291 173.662 986.404 173.618 990.2C173.572 994.093 176.439 997.319 179.937 997.31C183.423 997.301 186.151 994.276 186.177 990.394Z" fill="#DAC953"/>
</g>
<g opacity="0.4">
<path d="M102.47 819.431C101.922 819.524 101.388 819.722 100.843 819.845C82.09 824.084 69.3782 844.103 72.6135 865.594C75.3591 883.83 87.6469 896.585 104.137 898.895C105.81 899.129 106.265 899.757 106.25 901.624C106.21 906.834 106.241 912.044 106.279 917.255H110.064C110.046 912.124 110.02 906.993 109.892 901.865C109.835 899.575 110.573 899.04 112.42 898.816C133.67 896.234 148.273 872.464 142.881 849.331C139.042 832.859 127.327 821.428 112.05 819.312C110.642 819.117 109.89 818.811 109.902 816.859C109.985 801.447 109.962 786.035 109.922 770.623C109.919 769.252 110.325 768.308 111.193 767.384C113.363 765.077 115.392 762.602 117.591 760.334C118.699 759.193 118.573 758.515 117.538 757.441C115.395 755.218 113.423 752.789 111.287 750.556C110.287 749.51 109.917 748.411 109.922 746.891C109.965 731.791 110.013 716.689 109.882 701.589C109.86 699.141 110.656 698.648 112.535 698.429C132.791 696.066 147.597 673.238 143.288 651.1C139.805 633.203 128.227 621.281 111.935 618.939C110.352 618.711 109.906 618.112 109.913 616.352C109.974 601.018 109.961 585.684 109.926 570.349C109.923 569.004 110.235 568.013 111.122 567.075C113.246 564.827 115.19 562.359 117.379 560.199C118.759 558.837 118.549 558.056 117.309 556.805C115.242 554.722 113.394 552.369 111.35 550.256C110.286 549.155 109.915 547.987 109.92 546.383C109.969 531.283 109.986 516.182 109.906 501.082C109.895 499.042 110.38 498.324 112.234 498.085C138.532 494.68 152.595 461.735 138.339 436.857C132.252 426.235 123.461 420.176 112.24 418.561C111.031 418.387 109.882 418.535 109.897 416.312C109.996 400.745 109.961 385.176 109.928 369.609C109.925 368.397 110.322 367.577 111.061 366.775C113.162 364.5 115.144 362.082 117.31 359.888C118.546 358.635 118.762 357.855 117.38 356.495C115.241 354.389 113.362 351.957 111.272 349.783C110.263 348.733 109.92 347.619 109.924 346.111C109.965 331.009 109.994 315.909 109.899 300.808C109.886 298.635 110.406 297.926 112.349 297.684C138.231 294.47 152.446 261.635 138.619 236.956C132.499 226.034 123.596 219.779 112.123 218.183C110.782 217.996 109.887 217.863 109.899 215.805C109.991 200.316 109.959 184.825 109.93 169.335C109.928 168.155 110.227 167.288 110.991 166.468C113.201 164.094 115.296 161.586 117.539 159.253C118.572 158.178 118.702 157.5 117.592 156.359C115.44 154.148 113.48 151.703 111.335 149.483C110.266 148.377 109.915 147.201 109.92 145.604C109.967 130.582 110 115.558 109.894 100.536C109.877 98.2403 110.437 97.4592 112.464 97.29C117.467 96.8727 122.114 94.9772 126.368 92.0892C148.868 76.8155 150.02 41.7608 128.597 24.7205C123.639 20.7754 118.079 18.4969 112.013 17.7438C111.179 17.6406 109.928 18.0374 109.943 16.2313C109.991 10.8204 110.021 5.41043 110.051 0H106.279C106.245 5.10085 106.218 10.2012 106.241 15.3012C106.248 16.9513 105.872 17.5829 104.343 17.7631C94.394 18.9326 86.1851 23.8798 79.9846 32.6148C73.282 42.058 70.8812 52.8541 72.7337 64.7669C75.4431 82.187 88.5417 95.7527 104.343 97.4203C105.874 97.5822 106.245 98.2274 106.239 99.8785C106.182 115.291 106.186 130.703 106.235 146.115C106.24 147.584 105.814 148.579 104.895 149.558C102.675 151.919 100.569 154.414 98.3522 156.78C97.6234 157.557 97.6209 157.997 98.351 158.777C100.615 161.2 102.766 163.756 105.041 166.165C105.932 167.108 106.231 168.099 106.228 169.44C106.193 184.775 106.173 200.11 106.247 215.444C106.256 217.309 105.818 217.97 104.138 218.174C94.1897 219.388 86.0153 224.404 79.8569 233.177C73.25 242.59 70.8941 253.321 72.7333 265.144C75.4414 282.55 88.528 296.129 104.343 297.8C105.874 297.961 106.245 298.606 106.239 300.258C106.182 315.67 106.186 331.082 106.236 346.494C106.241 347.963 105.814 348.96 104.896 349.937C102.676 352.298 100.569 354.793 98.3522 357.158C97.623 357.937 97.6221 358.376 98.3514 359.156C100.616 361.578 102.778 364.12 105.037 366.55C105.841 367.415 106.234 368.292 106.231 369.586C106.192 385.076 106.183 400.567 106.239 416.056C106.245 417.706 105.872 418.34 104.345 418.52C94.3948 419.689 86.1855 424.636 79.9867 433.372C73.2849 442.814 70.8804 453.609 72.7345 465.523C75.4427 482.93 88.53 496.508 104.343 498.178C105.874 498.34 106.245 498.984 106.24 500.635C106.183 516.126 106.192 531.616 106.231 547.106C106.234 548.401 105.841 549.276 105.037 550.143C102.779 552.572 100.617 555.113 98.3522 557.537C97.6251 558.315 97.6209 558.753 98.3514 559.534C100.616 561.956 102.766 564.513 105.042 566.921C105.933 567.865 106.23 568.858 106.228 570.197C106.193 585.609 106.183 601.023 106.239 616.435C106.245 618.084 105.873 618.719 104.345 618.898C94.3952 620.068 86.1863 625.014 79.9858 633.75C73.2841 643.193 70.8796 653.988 72.7337 665.901C75.4435 683.314 88.5363 696.888 104.343 698.557C105.874 698.718 106.245 699.364 106.24 701.015C106.183 716.505 106.193 731.995 106.231 747.485C106.235 748.779 105.841 749.656 105.037 750.521C102.778 752.951 100.617 755.493 98.3522 757.915C97.6234 758.695 97.6213 759.134 98.3522 759.913C100.569 762.278 102.657 764.795 104.901 767.126C105.921 768.185 106.233 769.31 106.229 770.81C106.19 785.444 106.205 800.078 106.205 814.712C106.205 818.8 106.205 818.794 102.47 819.431ZM74.8154 57.5357C74.8453 37.0732 89.6636 20.53 107.97 20.5231C126.417 20.5162 141.411 37.1965 141.338 57.6453C141.264 78.1056 126.404 94.6451 108.082 94.658C89.6466 94.6699 74.785 78.0859 74.8154 57.5357ZM101.991 157.798C101.984 157.432 107.648 151.126 107.99 151.118C108.315 151.11 114.019 157.389 114.026 157.761C114.033 158.125 108.367 164.432 108.026 164.44C107.698 164.449 101.998 158.174 101.991 157.798ZM74.8154 257.925C74.8466 237.357 89.6965 220.873 108.169 220.901C126.446 220.93 141.39 237.649 141.337 258.012C141.284 278.555 126.374 295.056 107.882 295.036C89.6237 295.016 74.785 278.363 74.8154 257.925ZM102.45 358.914C101.756 358.177 102.131 357.755 102.606 357.23C104.137 355.539 105.655 353.832 107.184 352.138C107.566 351.715 107.919 351.116 108.541 351.815C110.255 353.741 111.984 355.651 113.698 357.576C113.841 357.736 113.925 357.958 114.024 358.131C114.022 358.534 108.322 364.881 108.006 364.799C107.759 364.734 107.515 364.534 107.328 364.329C105.699 362.528 104.111 360.678 102.45 358.914ZM74.8154 458.341C74.8204 437.78 89.6761 421.255 108.135 421.279C126.431 421.304 141.344 437.956 141.337 458.352C141.329 478.947 126.341 495.465 107.707 495.414C89.6017 495.364 74.8112 478.694 74.8154 458.341ZM102.602 559.444C102.231 559.026 101.687 558.634 102.318 557.938C104.049 556.031 105.762 554.103 107.489 552.191C107.627 552.039 107.823 551.953 108.052 551.795C108.274 551.992 108.503 552.155 108.691 552.365C110.316 554.171 111.906 556.018 113.567 557.783C114.263 558.523 113.876 558.945 113.405 559.466C111.874 561.159 110.325 562.832 108.841 564.574C108.205 565.322 107.78 565.284 107.16 564.559C105.674 562.819 104.118 561.153 102.602 559.444ZM74.8154 658.805C74.7621 638.271 89.6383 621.648 108.059 621.657C126.393 621.667 141.238 638.168 141.338 658.645C141.437 679.077 126.433 695.791 107.992 695.792C89.6778 695.793 74.869 679.283 74.8154 658.805ZM102.84 760.117C101.99 759.258 101.848 758.659 102.796 757.76C104.631 756.019 106.126 752.453 108.053 752.625C109.92 752.791 111.572 756.004 113.308 757.892C113.592 758.201 113.821 758.574 114.097 758.945C113.811 759.313 113.61 759.634 113.355 759.888C111.507 761.735 110.038 764.033 107.934 765.575C106.242 763.749 104.584 761.88 102.84 760.117ZM107.985 822.036C126.425 822.031 141.428 838.736 141.338 859.173C141.248 879.643 126.396 896.159 108.067 896.17C89.6428 896.18 74.7596 879.558 74.8158 859.033C74.8711 838.547 89.6695 822.04 107.985 822.036Z" fill="#BFB99F"/>
<path d="M108.122 488.383C93.2068 488.43 81.2052 475.119 81.1128 458.43C81.0213 441.87 93.0928 428.333 107.972 428.31C122.893 428.287 134.884 441.57 135.014 458.263C135.141 474.74 123.002 488.337 108.122 488.383ZM132.272 458.481C132.274 443.46 121.494 431.27 108.193 431.248C94.8142 431.226 83.7873 443.387 83.7419 458.212C83.6953 473.085 94.6786 485.439 107.951 485.445C121.368 485.45 132.27 473.364 132.272 458.481Z" fill="#FF7619"/>
<path d="M135.014 57.5617C135.066 74.0998 122.971 87.5963 108.072 87.6271C93.1775 87.6578 81.1497 74.2718 81.1114 57.6204C81.074 41.1213 93.0435 27.6413 107.81 27.5551C122.842 27.4666 134.961 40.8356 135.014 57.5617ZM132.271 57.5388C132.27 42.6114 121.409 30.4949 108.025 30.4926C94.7217 30.4913 83.7235 42.7875 83.7414 57.6434C83.7593 72.3896 94.7417 84.6795 107.91 84.6895C121.436 84.6992 132.272 72.6221 132.271 57.5388Z" fill="#FF7619"/>
<path d="M108.04 288.006C93.1509 288.019 81.0998 274.574 81.1123 257.962C81.1248 241.331 93.1647 227.912 108.054 227.933C122.96 227.955 135.027 241.403 135.013 257.977C135.001 274.573 122.945 287.994 108.04 288.006ZM132.272 257.931C132.271 242.994 121.416 230.874 108.038 230.871C94.728 230.868 83.7285 243.154 83.7423 258.008C83.7552 272.756 94.7355 285.056 107.899 285.068C121.43 285.079 132.273 273.007 132.272 257.931Z" fill="#B87333"/>
<path d="M108.296 628.688C123.08 628.82 135.088 642.342 135.013 658.771C134.936 675.516 122.825 688.861 107.795 688.761C93.027 688.663 81.0616 675.173 81.1115 658.678C81.1627 641.93 93.2878 628.553 108.296 628.688ZM132.271 658.855C132.273 643.839 121.489 631.648 108.189 631.627C94.812 631.605 83.7859 643.768 83.7414 658.595C83.6961 673.468 94.6793 685.818 107.955 685.823C121.371 685.828 132.269 673.74 132.271 658.855Z" fill="#FF7619"/>
<path d="M107.92 889.14C93.0614 889.1 80.9575 875.474 81.1118 858.962C81.2691 842.232 93.2507 828.996 108.173 829.068C123.056 829.14 135.228 842.825 135.015 859.245C134.796 876 122.851 889.179 107.92 889.14ZM132.271 859.238C132.274 844.217 121.494 832.027 108.193 832.006C94.814 831.984 83.7871 844.144 83.7418 858.969C83.696 873.843 94.6784 886.197 107.952 886.202C121.37 886.207 132.27 874.122 132.271 859.238Z" fill="#FF7619"/>
<path d="M125.985 458.502C125.974 469.406 117.841 478.422 108.015 478.424C98.2448 478.425 90.087 469.353 90.0296 458.423C89.9722 447.438 98.2094 438.243 108.086 438.27C118 438.296 125.997 447.335 125.985 458.502ZM108.059 441.363C99.5431 441.365 92.8434 448.787 92.8014 458.269C92.7586 467.831 99.5136 475.349 108.129 475.329C116.569 475.31 123.378 467.696 123.352 458.307C123.327 448.9 116.524 441.362 108.059 441.363Z" fill="#B87333"/>
<path d="M125.985 57.7079C125.977 68.6292 117.869 77.6527 108.049 77.6665C98.1814 77.6811 89.9416 68.4471 90.029 57.4722C90.1164 46.5293 98.2708 37.4976 108.051 37.5127C117.965 37.5278 125.993 46.5674 125.985 57.7079ZM107.891 74.5726C116.481 74.6322 123.357 67.0763 123.352 57.5827C123.348 48.2817 116.607 40.6823 108.296 40.6075C99.634 40.5296 92.8591 47.9075 92.8012 57.4814C92.7442 66.9516 99.421 74.5143 107.891 74.5726Z" fill="#C1E5DB"/>
<path d="M125.984 258.123C125.974 269.029 117.845 278.043 108.017 278.046C98.2467 278.05 90.0898 268.981 90.0287 258.048C89.9671 247.067 98.2081 237.866 108.083 237.893C117.997 237.918 125.995 246.958 125.984 258.123ZM108.15 240.987C99.5301 240.963 92.7714 248.464 92.8013 258.023C92.8304 267.505 99.5218 274.941 108.037 274.952C116.502 274.965 123.312 267.442 123.352 258.032C123.393 248.648 116.58 241.009 108.15 240.987Z" fill="#BFB99F"/>
<path d="M125.984 658.815C125.979 669.748 117.886 678.78 108.073 678.802C98.1998 678.824 89.9593 669.614 90.0288 658.634C90.0982 647.696 98.2522 638.641 108.026 638.647C117.947 638.654 125.991 647.688 125.984 658.815ZM107.982 675.707C116.458 675.738 123.265 668.271 123.352 658.848C123.438 649.488 116.615 641.783 108.205 641.741C99.5643 641.698 92.8043 649.148 92.8014 658.717C92.7981 668.198 99.4803 675.676 107.982 675.707Z" fill="#BFB99F"/>
<path d="M125.984 859.26C125.973 870.163 117.84 879.177 108.012 879.18C98.2438 879.181 90.0848 870.107 90.0286 859.178C89.9724 848.19 98.2084 838.999 108.086 839.025C118 839.053 125.996 848.093 125.984 859.26ZM108.127 842.12C99.5912 842.1 92.8774 849.473 92.8004 858.949C92.7235 868.519 99.4585 876.083 108.06 876.086C116.523 876.088 123.328 868.547 123.352 859.139C123.376 849.75 116.566 842.139 108.127 842.12Z" fill="#DAC953"/>
<path d="M108.008 468.297C102.944 468.296 99.0542 463.914 99.1 458.259C99.1458 452.694 102.98 448.424 107.957 448.397C112.983 448.369 117.029 452.782 117.052 458.318C117.076 463.828 113.025 468.298 108.008 468.297ZM114.287 458.439C114.312 454.419 111.576 451.324 108.007 451.334C104.597 451.343 101.77 454.46 101.728 458.255C101.684 462.147 104.554 465.371 108.051 465.36C111.537 465.349 114.263 462.324 114.287 458.439Z" fill="#F1C7B9"/>
<path d="M107.92 67.5405C102.876 67.496 99.0075 63.0506 99.1003 57.4058C99.1918 51.8412 103.054 47.6233 108.042 47.6407C113.056 47.6576 117.108 52.1627 117.052 57.6585C116.995 63.2115 112.955 67.5846 107.92 67.5405ZM114.287 57.6621C114.306 53.6482 111.559 50.558 107.989 50.5773C104.581 50.5947 101.762 53.7212 101.728 57.5177C101.693 61.4151 104.564 64.6218 108.069 64.6026C111.552 64.5847 114.268 61.5513 114.287 57.6621Z" fill="#DAC953"/>
<path d="M108.035 267.918C102.971 267.932 99.0694 263.563 99.0998 257.912C99.1302 252.351 102.96 248.058 107.927 248.018C112.962 247.977 116.999 252.353 117.051 257.908C117.101 263.409 113.053 267.904 108.035 267.918ZM114.287 257.945C114.28 254.047 111.585 250.995 108.113 250.955C104.598 250.915 101.717 254.089 101.728 257.991C101.738 261.798 104.536 264.943 107.945 264.982C111.52 265.021 114.293 261.945 114.287 257.945Z" fill="#F1C7B9"/>
<path d="M107.991 668.675C102.93 668.666 99.0457 664.271 99.1002 658.618C99.1543 653.056 102.997 648.793 107.973 648.774C112.997 648.756 117.044 653.186 117.051 658.715C117.059 664.238 113.014 668.684 107.991 668.675ZM114.287 658.615C114.258 654.736 111.523 651.716 108.035 651.712C104.541 651.707 101.675 654.944 101.728 658.834C101.78 662.631 104.611 665.735 108.023 665.738C111.593 665.74 114.317 662.642 114.287 658.615Z" fill="#C1E5DB"/>
<path d="M107.943 869.053C102.893 869.019 99.021 864.592 99.1008 858.943C99.179 853.378 103.034 849.146 108.021 849.152C113.033 849.158 117.089 853.648 117.052 859.147C117.015 864.691 112.972 869.087 107.943 869.053ZM114.287 859.2C114.314 855.177 111.582 852.082 108.012 852.09C104.6 852.098 101.773 855.21 101.728 859.006C101.682 862.899 104.549 866.125 108.047 866.116C111.533 866.107 114.261 863.083 114.287 859.2Z" fill="#DAC953"/>
</g>
<g opacity="0.4">
<path d="M30.3594 950.624C29.8112 950.717 29.2778 950.916 28.7329 951.039C9.9796 955.278 -2.73211 975.296 0.503121 996.788C3.24872 1015.02 15.5365 1027.78 32.0264 1030.09C33.6995 1030.32 34.1542 1030.95 34.1396 1032.82C34.0993 1038.03 34.1309 1043.24 34.1688 1048.45H37.9535C37.9356 1043.32 37.9094 1038.19 37.7821 1033.06C37.7251 1030.77 38.4623 1030.23 40.3093 1030.01C61.5599 1027.43 76.1623 1003.66 70.7709 980.524C66.9321 964.052 55.2167 952.621 39.9399 950.506C38.5318 950.311 37.78 950.005 37.7913 948.053C37.8749 932.641 37.8516 917.229 37.8121 901.816C37.8088 900.445 38.2144 899.501 39.083 898.578C41.2524 896.271 43.2812 893.795 45.481 891.527C46.5884 890.386 46.4628 889.708 45.4278 888.634C43.2846 886.411 41.3127 883.983 39.1766 881.75C38.1769 880.704 37.8067 879.604 37.8112 878.084C37.8549 862.984 37.9028 847.882 37.7717 832.782C37.7501 830.335 38.5455 829.841 40.4246 829.622C60.6804 827.26 75.4863 804.431 71.1774 782.293C67.6942 764.396 56.1169 752.475 39.8243 750.132C38.2414 749.904 37.7954 749.306 37.8025 747.546C37.8641 732.211 37.8504 716.877 37.8158 701.542C37.8125 700.197 38.1249 699.206 39.0118 698.268C41.1359 696.02 43.0795 693.553 45.2685 691.392C46.6483 690.03 46.4383 689.249 45.1986 687.998C43.1319 685.915 41.284 683.562 39.2394 681.449C38.1752 680.348 37.8042 679.18 37.8092 677.577C37.8583 662.477 37.8753 647.375 37.7954 632.275C37.7842 630.236 38.2697 629.518 40.1238 629.278C66.4221 625.873 80.4849 592.928 66.2286 568.05C60.1417 557.428 51.3504 551.369 40.1296 549.755C38.9211 549.58 37.7721 549.729 37.7863 547.505C37.8861 531.938 37.8508 516.37 37.8175 500.802C37.8146 499.59 38.2114 498.77 38.9511 497.969C41.0519 495.693 43.0341 493.276 45.1994 491.081C46.4358 489.828 46.6512 489.048 45.2693 487.688C43.1302 485.582 41.2516 483.15 39.1616 480.976C38.1528 479.927 37.8096 478.813 37.8137 477.304C37.8549 462.203 37.8832 447.102 37.7888 432.002C37.7755 429.829 38.2955 429.119 40.239 428.877C66.1205 425.664 80.3352 392.828 66.5082 368.149C60.3888 357.227 51.4852 350.972 40.0131 349.376C38.6715 349.19 37.7771 349.056 37.7888 346.998C37.8811 331.509 37.8483 316.019 37.82 300.529C37.8179 299.349 38.1166 298.482 38.8808 297.661C41.0902 295.288 43.1856 292.78 45.4286 290.447C46.4615 289.371 46.5913 288.693 45.4819 287.553C43.3299 285.341 41.3697 282.897 39.2244 280.677C38.1553 279.57 37.8046 278.394 37.8092 276.797C37.857 261.775 37.8895 246.751 37.7834 231.729C37.7667 229.434 38.3263 228.653 40.3534 228.483C45.3567 228.066 50.0038 226.171 54.2574 223.283C76.7576 208.009 77.9099 172.954 56.4871 155.914C51.5284 151.969 45.9686 149.69 39.9025 148.937C39.0684 148.834 37.8175 149.231 37.8329 147.425C37.8807 142.014 37.9111 136.604 37.9402 131.193H34.1683C34.1351 136.294 34.1072 141.395 34.1309 146.495C34.138 148.145 33.7619 148.776 32.2331 148.956C22.2836 150.126 14.0747 155.073 7.87422 163.808C1.17163 173.251 -1.2291 184.047 0.623345 195.96C3.33275 213.38 16.4313 226.946 32.2323 228.614C33.764 228.776 34.1346 229.421 34.1284 231.072C34.0714 246.484 34.0756 261.896 34.1251 277.308C34.1301 278.777 33.7037 279.773 32.7843 280.751C30.5649 283.112 28.4587 285.607 26.2419 287.973C25.513 288.751 25.5105 289.19 26.2406 289.971C28.5049 292.393 30.6552 294.949 32.9307 297.358C33.8214 298.302 34.1205 299.293 34.1176 300.634C34.0831 315.968 34.0627 331.303 34.1371 346.637C34.1459 348.503 33.7074 349.163 32.0272 349.367C22.0794 350.581 13.905 355.597 7.74651 364.37C1.1396 373.783 -1.21621 384.515 0.622928 396.337C3.33109 413.743 16.4176 427.322 32.2327 428.993C33.7632 429.154 34.1346 429.799 34.1288 431.451C34.0718 446.863 34.076 462.276 34.1255 477.688C34.1305 479.157 33.7041 480.153 32.7855 481.131C30.5654 483.492 28.4583 485.987 26.2419 488.352C25.5126 489.131 25.5118 489.569 26.241 490.349C28.5053 492.772 30.6681 495.314 32.9262 497.743C33.7303 498.609 34.1238 499.485 34.1209 500.779C34.0814 516.269 34.0722 531.76 34.1284 547.25C34.1346 548.9 33.7615 549.534 32.2344 549.713C22.2845 550.882 14.0751 555.829 7.8763 564.565C1.17454 574.007 -1.22994 584.802 0.624177 596.716C3.33234 614.123 16.4197 627.701 32.2331 629.371C33.7636 629.533 34.1351 630.178 34.1292 631.829C34.0722 647.319 34.0814 662.809 34.1209 678.299C34.1238 679.594 33.7311 680.47 32.927 681.336C30.6689 683.766 28.5062 686.307 26.2419 688.73C25.5147 689.508 25.5105 689.947 26.241 690.728C28.5053 693.149 30.6556 695.706 32.9311 698.115C33.8226 699.058 34.1201 700.051 34.1172 701.391C34.0826 716.803 34.0722 732.216 34.1284 747.628C34.1346 749.278 33.7623 749.912 32.2344 750.091C22.2849 751.261 14.076 756.208 7.87547 764.944C1.17371 774.387 -1.23077 785.181 0.623345 797.095C3.33317 814.507 16.4259 828.081 32.2331 829.75C33.764 829.911 34.1351 830.557 34.1292 832.208C34.0722 847.698 34.0822 863.188 34.1209 878.679C34.1242 879.973 33.7311 880.849 32.927 881.715C30.6681 884.145 28.5062 886.686 26.2419 889.109C25.513 889.888 25.511 890.327 26.2419 891.106C28.4583 893.472 30.5466 895.988 32.791 898.319C33.811 899.379 34.123 900.503 34.1188 902.003C34.0801 916.637 34.0951 931.272 34.0951 945.906C34.0951 949.994 34.0951 949.988 30.3594 950.624ZM2.70501 188.729C2.73496 168.267 17.5533 151.723 35.8594 151.716C54.3069 151.71 69.3004 168.39 69.2276 188.839C69.1539 209.299 54.2932 225.838 35.9713 225.851C17.5362 225.863 2.67464 209.279 2.70501 188.729ZM29.8806 288.991C29.8736 288.625 35.5374 282.319 35.8793 282.311C36.2047 282.303 41.9084 288.582 41.9155 288.954C41.9226 289.318 36.2567 295.625 35.9155 295.633C35.5877 295.642 29.8873 289.367 29.8806 288.991ZM2.70501 389.119C2.73621 368.55 17.5862 352.066 36.0591 352.094C54.336 352.123 69.2796 368.842 69.2267 389.205C69.1739 409.749 54.2636 426.249 35.7712 426.229C17.5134 426.209 2.67464 409.556 2.70501 389.119ZM30.3399 490.107C29.646 489.37 30.0208 488.948 30.4959 488.423C32.0268 486.732 33.5443 485.026 35.074 483.332C35.4559 482.908 35.809 482.31 36.431 483.008C38.1449 484.935 39.8734 486.845 41.5881 488.77C41.7304 488.929 41.8148 489.152 41.9138 489.324C41.9118 489.727 36.2113 496.075 35.8951 495.992C35.6485 495.928 35.4043 495.727 35.2179 495.522C33.5888 493.721 32.0006 491.872 30.3399 490.107ZM2.70501 589.534C2.71 568.973 17.5658 552.448 36.0245 552.472C54.321 552.498 69.2338 569.149 69.2263 589.546C69.2188 610.14 54.2308 626.659 35.5969 626.607C17.4913 626.558 2.70085 609.887 2.70501 589.534ZM30.4917 690.638C30.1207 690.22 29.5765 689.827 30.208 689.131C31.9386 687.224 33.6512 685.296 35.3789 683.384C35.517 683.232 35.7129 683.146 35.9413 682.989C36.1639 683.185 36.3927 683.349 36.5807 683.558C38.2052 685.364 39.7956 687.211 41.4562 688.976C42.153 689.717 41.7653 690.139 41.2948 690.659C39.764 692.352 38.2144 694.026 36.7305 695.767C36.0948 696.515 35.6701 696.477 35.0498 695.752C33.5635 694.013 32.008 692.346 30.4917 690.638ZM2.70501 789.998C2.65176 769.464 17.5279 752.841 35.9484 752.85C54.2824 752.861 69.1277 769.361 69.2271 789.839C69.3262 810.271 54.3223 826.984 35.8818 826.985C17.5674 826.986 2.75867 810.477 2.70501 789.998ZM30.7297 891.31C29.8798 890.451 29.7375 889.853 30.6852 888.954C32.521 887.212 34.0161 883.646 35.9426 883.818C37.8096 883.984 39.4619 887.197 41.1979 889.085C41.482 889.394 41.7108 889.767 41.9862 890.139C41.7004 890.507 41.4995 890.828 41.2449 891.081C39.397 892.929 37.9273 895.226 35.8236 896.768C34.1313 894.942 32.474 893.073 30.7297 891.31ZM35.8744 953.229C54.3148 953.225 69.3178 969.929 69.228 990.367C69.1377 1010.84 54.2853 1027.35 35.9571 1027.36C17.5325 1027.37 2.64926 1010.75 2.70542 990.226C2.76075 969.74 17.5591 953.234 35.8744 953.229Z" fill="#BFB99F"/>
<path d="M36.0113 619.576C21.0964 619.623 9.09482 606.313 9.00247 589.623C8.91095 573.063 20.9824 559.526 35.8615 559.503C50.7822 559.48 62.7738 572.763 62.9036 589.456C63.0309 605.933 50.8916 619.53 36.0113 619.576ZM60.1613 589.675C60.1634 574.654 49.384 562.463 36.0824 562.441C22.7038 562.42 11.6769 574.58 11.6316 589.405C11.585 604.278 22.5682 616.632 35.8411 616.638C49.258 616.643 60.1592 604.558 60.1613 589.675Z" fill="#FF7619"/>
<path d="M62.9044 188.755C62.9564 205.293 50.862 218.79 35.963 218.82C21.0681 218.851 9.04031 205.465 9.00204 188.814C8.9646 172.315 20.9342 158.835 35.7009 158.748C50.7322 158.66 62.852 172.029 62.9044 188.755ZM60.1617 188.732C60.1609 173.805 49.2991 161.688 35.916 161.686C22.6123 161.685 11.6141 173.981 11.632 188.837C11.6499 203.583 22.6323 215.873 35.8008 215.883C49.3262 215.893 60.1626 203.816 60.1617 188.732Z" fill="#FF7619"/>
<path d="M35.9296 419.199C21.0406 419.212 8.98948 405.767 9.00196 389.156C9.01444 372.524 21.0543 359.105 35.9434 359.126C50.8495 359.148 62.9168 372.596 62.9031 389.171C62.8902 405.766 50.8349 419.187 35.9296 419.199ZM60.1616 389.124C60.1608 374.188 49.3061 362.067 35.9276 362.064C22.6176 362.062 11.6182 374.347 11.6319 389.201C11.6448 403.949 22.6251 416.249 35.7882 416.261C49.3194 416.272 60.1625 404.2 60.1616 389.124Z" fill="#B87333"/>
<path d="M36.1869 759.881C50.9703 760.013 62.9785 773.536 62.9032 789.965C62.8263 806.709 50.7153 820.054 35.6856 819.954C20.9176 819.857 8.95219 806.366 9.00211 789.871C9.05328 773.123 21.1784 759.747 36.1869 759.881ZM60.1618 790.048C60.1639 775.033 49.3799 762.841 36.0791 762.82C22.7027 762.799 11.6766 774.962 11.6321 789.788C11.5867 804.662 22.5699 817.011 35.8458 817.016C49.2613 817.021 60.1597 804.934 60.1618 790.048Z" fill="#FF7619"/>
<path d="M35.8103 1020.33C20.952 1020.29 8.8481 1006.67 9.00244 990.156C9.15968 973.425 21.1413 960.189 36.0641 960.261C50.9465 960.333 63.1186 974.019 62.9052 990.439C62.6864 1007.19 50.7418 1020.37 35.8103 1020.33ZM60.1621 990.431C60.1642 975.41 49.3848 963.22 36.0832 963.199C22.7046 963.177 11.6777 975.337 11.6324 990.163C11.5866 1005.04 22.569 1017.39 35.8428 1017.4C49.2608 1017.4 60.1609 1005.32 60.1621 990.431Z" fill="#FF7619"/>
<path d="M53.8745 589.696C53.8633 600.6 45.7305 609.615 35.9042 609.617C26.1344 609.619 17.9767 600.546 17.9192 589.616C17.8618 578.631 26.0991 569.436 35.9757 569.463C45.8898 569.49 53.8862 578.528 53.8745 589.696ZM35.9491 572.557C27.4327 572.558 20.7331 579.981 20.6911 589.462C20.6482 599.024 27.4032 606.543 36.0186 606.523C44.4584 606.503 51.2679 598.89 51.2421 589.501C51.2167 580.093 44.4139 572.555 35.9491 572.557Z" fill="#B87333"/>
<path d="M53.8744 188.901C53.8669 199.823 45.7582 208.846 35.9385 208.86C26.071 208.874 17.8313 199.64 17.9187 188.666C18.006 177.723 26.1604 168.691 35.9406 168.706C45.8551 168.721 53.8827 177.761 53.8744 188.901ZM35.7809 205.766C44.3709 205.826 51.2465 198.27 51.2415 188.776C51.2374 179.475 44.4965 171.876 36.1856 171.801C27.5237 171.723 20.7487 179.101 20.6909 188.675C20.6339 198.145 27.3107 205.708 35.7809 205.766Z" fill="#C1E5DB"/>
<path d="M53.875 389.317C53.8646 400.223 45.7351 409.236 35.9071 409.239C26.1374 409.243 17.9804 400.175 17.9193 389.242C17.8577 378.26 26.0987 369.06 35.9737 369.086C45.8878 369.112 53.8858 378.151 53.875 389.317ZM36.0402 372.18C27.4207 372.156 20.662 379.658 20.6919 389.217C20.721 398.699 27.4124 406.134 35.9279 406.146C44.3927 406.158 51.2022 398.635 51.243 389.226C51.2833 379.841 44.4705 372.203 36.0402 372.18Z" fill="#BFB99F"/>
<path d="M53.8741 790.008C53.8687 800.942 45.7754 809.973 35.9624 809.995C26.0895 810.017 17.8489 800.807 17.9184 789.828C17.9879 778.89 26.1419 769.834 35.9158 769.841C45.8362 769.848 53.8804 778.881 53.8741 790.008ZM35.8721 806.9C44.3481 806.931 51.1551 799.464 51.2421 790.041C51.3274 780.681 44.505 772.976 36.0943 772.934C27.454 772.892 20.694 780.341 20.691 789.91C20.6877 799.391 27.3699 806.869 35.8721 806.9Z" fill="#BFB99F"/>
<path d="M53.8749 990.453C53.8637 1001.36 45.7305 1010.37 35.9029 1010.37C26.1344 1010.37 17.9754 1001.3 17.9192 990.371C17.8631 979.384 26.099 970.192 35.977 970.219C45.8902 970.246 53.8866 979.286 53.8749 990.453ZM36.0173 973.313C27.4818 973.293 20.768 980.666 20.691 990.143C20.6141 999.713 27.3491 1007.28 35.9508 1007.28C44.4134 1007.28 51.2188 999.741 51.2425 990.333C51.2666 980.944 44.4571 973.332 36.0173 973.313Z" fill="#DAC953"/>
<path d="M35.8975 599.491C30.8335 599.49 26.9439 595.107 26.9897 589.453C27.0354 583.887 30.8697 579.617 35.8463 579.59C40.8724 579.562 44.9188 583.976 44.9421 589.511C44.9658 595.021 40.9144 599.492 35.8975 599.491ZM42.1766 589.633C42.2015 585.613 39.4655 582.517 35.8962 582.527C32.4871 582.537 29.6595 585.653 29.6175 589.448C29.5738 593.341 32.4434 596.565 35.9407 596.554C39.4268 596.543 42.1524 593.517 42.1766 589.633Z" fill="#F1C7B9"/>
<path d="M35.8099 198.734C30.7659 198.689 26.8971 194.244 26.9899 188.599C27.0814 183.035 30.944 178.817 35.9318 178.834C40.9459 178.851 44.9977 183.356 44.9416 188.852C44.885 194.405 40.8444 198.778 35.8099 198.734ZM42.1764 188.856C42.196 184.842 39.4487 181.751 35.879 181.771C32.4707 181.788 29.6515 184.915 29.6174 188.711C29.5828 192.608 32.4532 195.815 35.9585 195.796C39.4412 195.778 42.1577 192.745 42.1764 188.856Z" fill="#DAC953"/>
<path d="M35.9251 399.112C30.8611 399.125 26.9591 394.756 26.9894 389.105C27.0198 383.544 30.8499 379.252 35.817 379.211C40.8518 379.171 44.8891 383.547 44.9407 389.102C44.991 394.602 40.9429 399.098 35.9251 399.112ZM42.1763 389.139C42.1701 385.24 39.4744 382.188 36.0029 382.148C32.4877 382.108 29.6069 385.282 29.6173 389.185C29.6277 392.991 32.4253 396.136 35.8344 396.175C39.4099 396.214 42.1826 393.138 42.1763 389.139Z" fill="#F1C7B9"/>
<path d="M35.8806 799.868C30.8199 799.859 26.9353 795.464 26.9898 789.811C27.0439 784.249 30.8865 779.986 35.8623 779.968C40.8867 779.949 44.9332 784.379 44.9406 789.909C44.9485 795.431 40.9038 799.878 35.8806 799.868ZM42.1767 789.808C42.1476 785.93 39.4124 782.909 35.9251 782.905C32.4307 782.9 29.5644 786.137 29.6177 790.027C29.6697 793.824 32.5006 796.929 35.9126 796.931C39.4823 796.933 42.2071 793.835 42.1767 789.808Z" fill="#C1E5DB"/>
<path d="M35.8326 1000.25C30.7823 1000.21 26.9106 995.785 26.9905 990.136C27.0687 984.571 30.9238 980.34 35.9108 980.346C40.9223 980.352 44.9787 984.841 44.9421 990.34C44.9047 995.884 40.862 1000.28 35.8326 1000.25ZM42.1766 990.394C42.2036 986.371 39.4713 983.275 35.9012 983.284C32.49 983.291 29.6624 986.404 29.6175 990.2C29.5718 994.093 32.4388 997.319 35.9366 997.31C39.4226 997.301 42.1508 994.276 42.1766 990.394Z" fill="#DAC953"/>
</g>
</g>
</svg>
