<svg width="20" height="20" viewBox="0 0 20 20" fill="none" xmlns="http://www.w3.org/2000/svg">
<path d="M8.04688 3.75C8.04688 3.56771 8.14453 3.47656 8.33984 3.47656C8.53516 3.47656 8.63281 3.56771 8.63281 3.75V4.17969C8.63281 4.36198 8.53516 4.45312 8.33984 4.45312C8.14453 4.45312 8.04688 4.36198 8.04688 4.17969V3.75ZM11.7578 5.70312C11.6016 5.85938 11.4583 5.86589 11.3281 5.72266C11.1979 5.57943 11.1979 5.44271 11.3281 5.3125L11.6406 5C11.7708 4.86979 11.9076 4.8763 12.0508 5.01953C12.194 5.16276 12.1875 5.29948 12.0312 5.42969L11.7578 5.70312ZM13.2812 9.02344H12.8906C12.6823 9.02344 12.5781 8.92578 12.5781 8.73047C12.5781 8.53516 12.6823 8.4375 12.8906 8.4375H13.2812C13.4896 8.4375 13.5938 8.53516 13.5938 8.73047C13.5938 8.92578 13.4896 9.02344 13.2812 9.02344ZM8.16406 13.3984C8.16406 13.1901 8.26172 13.0859 8.45703 13.0859C8.65234 13.0859 8.75 13.1901 8.75 13.3984V13.8281C8.75 14.0104 8.65234 14.1016 8.45703 14.1016C8.26172 14.1016 8.16406 14.0104 8.16406 13.8281V13.3984ZM5 12.4609C4.86979 12.5911 4.73958 12.5846 4.60938 12.4414C4.47917 12.2982 4.47917 12.1615 4.60938 12.0312L4.88281 11.7188C5.03906 11.5885 5.18229 11.5951 5.3125 11.7383C5.44271 11.8815 5.44271 12.0182 5.3125 12.1484L5 12.4609ZM3.78906 9.02344H3.35938C3.15104 9.02344 3.04688 8.92578 3.04688 8.73047C3.04688 8.53516 3.15104 8.4375 3.35938 8.4375H3.78906C3.97135 8.4375 4.0625 8.53516 4.0625 8.73047C4.0625 8.92578 3.97135 9.02344 3.78906 9.02344ZM4.88281 5.70312L4.60938 5.42969C4.47917 5.29948 4.47917 5.16276 4.60938 5.01953C4.73958 4.8763 4.86979 4.86979 5 5L5.3125 5.3125C5.44271 5.44271 5.44271 5.57943 5.3125 5.72266C5.18229 5.86589 5.03906 5.85938 4.88281 5.70312ZM8.04688 8.55469V6.05469C8.04688 5.8724 8.14453 5.78125 8.33984 5.78125C8.53516 5.78125 8.63281 5.8724 8.63281 6.05469V8.82812C8.63281 9.03646 8.52865 9.14062 8.32031 9.14062H6.91406C6.70573 9.14062 6.60156 9.04297 6.60156 8.84766C6.60156 8.65234 6.70573 8.55469 6.91406 8.55469H8.04688ZM16.6016 9.64844C17.6172 10.0391 18.4375 10.6901 19.0625 11.6016C19.6875 12.513 20 13.5286 20 14.6484C20 16.0026 19.5573 17.1875 18.6719 18.2031C18.5417 18.3333 18.3984 18.3333 18.2422 18.2031C18.0859 18.0729 18.0729 17.9427 18.2031 17.8125C19.0104 16.901 19.4141 15.8464 19.4141 14.6484C19.4141 13.3464 18.9518 12.2266 18.0273 11.2891C17.1029 10.3516 15.9831 9.88281 14.668 9.88281C13.3529 9.88281 12.2266 10.3516 11.2891 11.2891C10.3516 12.2266 9.88281 13.3464 9.88281 14.6484C9.88281 15.9766 10.3516 17.1029 11.2891 18.0273C12.2266 18.9518 13.3464 19.4141 14.6484 19.4141C15.6641 19.4141 16.5755 19.1276 17.3828 18.5547C17.5391 18.4245 17.6758 18.444 17.793 18.6133C17.9102 18.7826 17.8906 18.9193 17.7344 19.0234C16.8229 19.6745 15.7943 20 14.6484 20C13.6068 20 12.6497 19.7135 11.7773 19.1406C10.9049 18.5677 10.2474 17.8255 9.80469 16.9141C9.3099 16.9922 8.8151 17.0312 8.32031 17.0312C6.02865 17.0312 4.06901 16.2174 2.44141 14.5898C0.813802 12.9622 0 11.0026 0 8.71094C0 6.41927 0.813802 4.45964 2.44141 2.83203C4.06901 1.20443 6.02865 0.390625 8.32031 0.390625C10.2474 0.390625 11.9661 0.989584 13.4766 2.1875C13.6328 2.29167 13.6458 2.42188 13.5156 2.57812C13.3854 2.73438 13.2422 2.76042 13.0859 2.65625C11.7057 1.53646 10.1172 0.976562 8.32031 0.976562C6.1849 0.976562 4.36198 1.73177 2.85156 3.24219C1.34115 4.7526 0.585938 6.57552 0.585938 8.71094C0.585938 10.8464 1.34115 12.6693 2.85156 14.1797C4.36198 15.6901 6.1849 16.4453 8.32031 16.4453C8.73698 16.4453 9.16667 16.4193 9.60938 16.3672C9.45312 15.9505 9.36198 15.5339 9.33594 15.1172C8.9974 15.1693 8.65885 15.1953 8.32031 15.1953C7.14844 15.1953 6.06771 14.9023 5.07812 14.3164C4.08854 13.7305 3.30729 12.9427 2.73438 11.9531C2.63021 11.7708 2.66276 11.6341 2.83203 11.543C3.0013 11.4518 3.13802 11.4844 3.24219 11.6406C3.76302 12.5521 4.47917 13.2747 5.39062 13.8086C6.30208 14.3424 7.27865 14.6094 8.32031 14.6094C8.65885 14.6094 8.98438 14.5703 9.29688 14.4922C9.34896 13.138 9.83724 11.9661 10.7617 10.9766C11.6862 9.98698 12.8255 9.4401 14.1797 9.33594C14.1797 9.1276 14.1797 8.91927 14.1797 8.71094C14.1797 7.66927 13.9193 6.69271 13.3984 5.78125C12.8776 4.86979 12.168 4.15365 11.2695 3.63281C10.3711 3.11198 9.38802 2.85156 8.32031 2.85156C6.70573 2.85156 5.32552 3.42448 4.17969 4.57031C3.03385 5.71615 2.46094 7.09635 2.46094 8.71094C2.46094 9.38802 2.5651 10.026 2.77344 10.625C2.82552 10.8073 2.76042 10.9375 2.57812 11.0156C2.55208 11.0156 2.52604 11.0156 2.5 11.0156C2.34375 11.0156 2.2526 10.9505 2.22656 10.8203C1.99219 10.1432 1.875 9.4401 1.875 8.71094C1.875 6.9401 2.50651 5.42318 3.76953 4.16016C5.03255 2.89713 6.54948 2.26562 8.32031 2.26562C10.0911 2.26562 11.6081 2.89713 12.8711 4.16016C14.1341 5.42318 14.7656 6.9401 14.7656 8.71094C14.7656 8.89323 14.7656 9.08854 14.7656 9.29688C15.1823 9.29688 15.599 9.36198 16.0156 9.49219C16.0417 9.23177 16.0547 8.97135 16.0547 8.71094C16.0547 6.65365 15.3516 4.88281 13.9453 3.39844C13.8151 3.26823 13.8151 3.13151 13.9453 2.98828C14.0755 2.84505 14.2188 2.85156 14.375 3.00781C15.8854 4.59635 16.6406 6.4974 16.6406 8.71094C16.6406 9.02344 16.6276 9.33594 16.6016 9.64844ZM17.1875 12.1094C17.3438 12.2917 17.4219 12.5 17.4219 12.7344C17.4219 12.9688 17.3438 13.1771 17.1875 13.3594L15.8984 14.6484L17.1875 15.9375C17.3438 16.0938 17.4219 16.2956 17.4219 16.543C17.4219 16.7904 17.3438 16.9922 17.1875 17.1484C17.0573 17.2786 16.9206 17.3633 16.7773 17.4023C16.6341 17.4414 16.4844 17.4414 16.3281 17.4023C16.1719 17.3633 16.0417 17.2786 15.9375 17.1484L14.6484 15.8984L13.3594 17.1484C13.2031 17.3307 13.0013 17.4219 12.7539 17.4219C12.5065 17.4219 12.2982 17.3372 12.1289 17.168C11.9596 16.9987 11.875 16.7904 11.875 16.543C11.875 16.2956 11.9661 16.0938 12.1484 15.9375L13.3984 14.6484L12.1484 13.3594C11.9661 13.1771 11.875 12.9688 11.875 12.7344C11.875 12.5 11.9596 12.2982 12.1289 12.1289C12.2982 11.9596 12.5065 11.875 12.7539 11.875C13.0013 11.875 13.2031 11.9531 13.3594 12.1094L14.6484 13.3984L15.9375 12.1094C16.0417 12.0052 16.1719 11.9336 16.3281 11.8945C16.4844 11.8555 16.6341 11.8555 16.7773 11.8945C16.9206 11.9336 17.0573 12.0052 17.1875 12.1094ZM16.7578 12.9297C16.9141 12.7995 16.9206 12.6693 16.7773 12.5391C16.6341 12.4089 16.4974 12.4089 16.3672 12.5391L14.8828 14.0234C14.8047 14.0755 14.7266 14.1016 14.6484 14.1016C14.5703 14.1016 14.5052 14.0755 14.4531 14.0234L12.9688 12.5391C12.8125 12.4089 12.6693 12.4089 12.5391 12.5391C12.4089 12.6693 12.4089 12.7995 12.5391 12.9297L14.0234 14.4531C14.1797 14.5833 14.1797 14.7135 14.0234 14.8438L12.5391 16.3281C12.4089 16.4844 12.4089 16.6276 12.5391 16.7578C12.6693 16.888 12.8125 16.888 12.9688 16.7578L14.4531 15.2734C14.5052 15.2214 14.5703 15.1953 14.6484 15.1953C14.7266 15.1953 14.8047 15.2214 14.8828 15.2734L16.3672 16.7578C16.4974 16.888 16.6341 16.888 16.7773 16.7578C16.9206 16.6276 16.9141 16.4844 16.7578 16.3281L15.2734 14.8438C15.1432 14.7135 15.1432 14.5833 15.2734 14.4531L16.7578 12.9297Z" fill="#AA8453"/>
</svg>
