<svg width="20" height="20" viewBox="0 0 20 20" fill="none" xmlns="http://www.w3.org/2000/svg">
<path d="M18.125 17.8125C17.5 17.3125 16.4375 17.3125 15.8125 17.8125C15.1875 18.3125 14.125 18.3125 13.5 17.8125C12.875 17.3125 11.8125 17.3125 11.1875 17.8125C10.5625 18.3125 9.5 18.3125 8.875 17.8125C8.25 17.3125 7.1875 17.3125 6.5625 17.8125C5.9375 18.3125 4.875 18.3125 4.25 17.8125C3.625 17.3125 2.5625 17.3125 1.9375 17.8125" stroke="#AA8453" stroke-width="0.8" stroke-miterlimit="10" stroke-linecap="round" stroke-linejoin="round"/>
<path d="M18.125 14.6875C17.5 14.1875 16.4375 14.1875 15.8125 14.6875C15.1875 15.1875 14.125 15.1875 13.5 14.6875C12.875 14.1875 11.8125 14.1875 11.1875 14.6875C10.5625 15.1875 9.5 15.1875 8.875 14.6875C8.25 14.1875 7.1875 14.1875 6.5625 14.6875C5.9375 15.1875 4.875 15.1875 4.25 14.6875C3.625 14.1875 2.5625 14.1875 1.9375 14.6875" stroke="#AA8453" stroke-width="0.8" stroke-miterlimit="10" stroke-linecap="round" stroke-linejoin="round"/>
<path d="M6.875 14.375V4.0625C6.875 2.875 7.875 1.875 9.0625 1.875C10.25 1.875 11.25 2.875 11.25 4.0625V5" stroke="#AA8453" stroke-width="0.8" stroke-miterlimit="10" stroke-linecap="round" stroke-linejoin="round"/>
<path d="M13.75 14.375V4.0625C13.75 2.875 14.75 1.875 15.9375 1.875C17.125 1.875 18.125 2.875 18.125 4.0625V5" stroke="#AA8453" stroke-width="0.8" stroke-miterlimit="10" stroke-linecap="round" stroke-linejoin="round"/>
<path d="M8.75 7.5H13.75" stroke="#AA8453" stroke-width="0.8" stroke-miterlimit="10" stroke-linecap="round" stroke-linejoin="round"/>
<path d="M8.75 10H13.75" stroke="#AA8453" stroke-width="0.8" stroke-miterlimit="10" stroke-linecap="round" stroke-linejoin="round"/>
<path d="M8.75 12.5H13.75" stroke="#AA8453" stroke-width="0.8" stroke-miterlimit="10" stroke-linecap="round" stroke-linejoin="round"/>
</svg>
